<svg width="800" height="300" xmlns="http://www.w3.org/2000/svg">
<rect x="0" y="0" width="800" height="300" fill="white" stroke="lightgray" />
<polyline fill="none" stroke="blue" stroke-width="2" points="10.0,140.5 14.9,104.3 19.8,284.0 24.6,139.7 29.5,251.1 34.4,107.7 39.2,99.9 44.1,273.2 49.0,198.3 53.9,242.2 58.8,222.0 63.6,109.3 68.5,59.9 73.4,36.0 78.2,262.8 83.1,155.3 88.0,78.2 92.9,158.9 97.8,255.2 102.6,26.5 107.5,161.6 112.4,135.2 117.3,245.4 122.1,263.8 127.0,174.9 131.9,238.0 136.8,244.1 141.6,273.1 146.5,95.0 151.4,97.9 156.2,256.7 161.1,287.3 166.0,235.7 170.9,192.5 175.8,169.3 180.6,33.5 185.5,137.3 190.4,108.9 195.2,255.2 200.1,146.5 205.0,188.2 209.9,60.0 214.8,67.6 219.6,258.3 224.5,130.5 229.4,40.6 234.2,203.4 239.1,152.7 244.0,215.8 248.9,243.4 253.8,67.9 258.6,134.2 263.5,113.4 268.4,230.3 273.2,140.8 278.1,237.3 283.0,215.5 287.9,37.5 292.8,214.7 297.6,46.6 302.5,30.0 307.4,82.5 312.2,20.5 317.1,14.6 322.0,108.6 326.9,57.2 331.8,11.1 336.6,28.2 341.5,154.1 346.4,32.3 351.2,18.8 356.1,139.9 361.0,276.8 365.9,103.4 370.8,179.0 375.6,246.8 380.5,30.4 385.4,32.3 390.2,14.8 395.1,188.0 400.0,203.2 404.9,156.4 409.7,248.9 414.6,33.0 419.5,49.0 424.4,116.0 429.2,151.9 434.1,196.7 439.0,227.6 443.9,214.4 448.8,160.9 453.6,285.6 458.5,153.5 463.4,261.1 468.2,134.1 473.1,139.4 478.0,69.8 482.9,107.2 487.8,13.0 492.6,10.0 497.5,276.5 502.4,49.7 507.2,123.9 512.1,189.1 517.0,43.9 521.9,212.1 526.8,219.3 531.6,261.5 536.5,37.0 541.4,258.8 546.2,180.9 551.1,60.6 556.0,80.5 560.9,285.6 565.8,267.7 570.6,33.7 575.5,76.3 580.4,132.8 585.2,75.9 590.1,125.9 595.0,65.4 599.9,200.5 604.8,240.5 609.6,139.6 614.5,202.3 619.4,269.4 624.2,140.4 629.1,100.0 634.0,86.0 638.9,130.4 643.8,190.5 648.6,96.5 653.5,182.3 658.4,46.0 663.2,186.8 668.1,168.5 673.0,142.0 677.9,83.4 682.8,253.4 687.6,202.6 692.5,285.7 697.4,187.5 702.2,276.3 707.1,221.4 712.0,76.8 716.9,274.2 721.8,27.4 726.6,151.3 731.5,290.0 736.4,220.3 741.2,269.1 746.1,151.8 751.0,249.5 755.9,171.9 760.8,265.5 765.6,128.2 770.5,84.3 775.4,257.5 780.2,97.5 785.1,197.0 790.0,191.3 " />
</svg>
