<svg width="6880" height="480" xmlns="http://www.w3.org/2000/svg">
<rect x="0" y="0" width="6880" height="480" fill="white" />
<line x1="60" y1="370.0" x2="6860" y2="370.0" stroke="#e0e0e0" />
<text x="5" y="374.0" font-size="12" fill="#333">5.04</text>
<line x1="60" y1="310.0" x2="6860" y2="310.0" stroke="#e0e0e0" />
<text x="5" y="314.0" font-size="12" fill="#333">29.17</text>
<line x1="60" y1="250.0" x2="6860" y2="250.0" stroke="#e0e0e0" />
<text x="5" y="254.0" font-size="12" fill="#333">53.30</text>
<line x1="60" y1="190.0" x2="6860" y2="190.0" stroke="#e0e0e0" />
<text x="5" y="194.0" font-size="12" fill="#333">77.43</text>
<line x1="60" y1="130.0" x2="6860" y2="130.0" stroke="#e0e0e0" />
<text x="5" y="134.0" font-size="12" fill="#333">101.56</text>
<line x1="60" y1="70.0" x2="6860" y2="70.0" stroke="#e0e0e0" />
<text x="5" y="74.0" font-size="12" fill="#333">125.69</text>
<line x1="60" y1="10.0" x2="6860" y2="10.0" stroke="#e0e0e0" />
<text x="5" y="14.0" font-size="12" fill="#333">149.82</text>
<polyline fill="none" stroke="blue" stroke-width="2" points="60.0,33.6 65.0,271.0 70.0,275.1 75.0,356.4 80.0,73.3 85.0,252.6 90.0,26.2 95.0,294.2 100.0,326.3 105.0,96.3 110.0,94.0 115.0,114.0 120.0,158.3 125.0,197.8 130.0,94.9 135.0,35.5 140.0,290.8 145.0,292.5 150.0,246.3 155.0,163.3 160.0,205.6 165.0,174.2 170.0,291.6 175.0,110.9 180.0,73.3 185.0,241.9 190.0,192.3 195.0,329.2 200.0,49.6 205.0,107.2 210.0,89.8 215.0,182.9 220.0,271.6 225.0,341.5 230.0,344.8 235.0,269.9 240.0,235.6 245.0,171.5 250.0,167.1 255.0,317.8 260.0,363.7 265.0,118.3 270.0,138.9 275.0,320.5 280.0,268.0 285.0,319.2 290.0,114.6 295.0,30.8 300.0,107.6 305.0,163.9 310.0,258.1 315.0,228.7 320.0,221.8 325.0,125.0 330.0,337.7 335.0,326.4 340.0,240.5 345.0,174.6 350.0,245.6 355.0,261.3 360.0,176.7 365.0,185.6 370.0,301.4 375.0,352.8 380.0,179.2 385.0,12.0 390.0,312.0 395.0,183.9 400.0,236.8 405.0,109.9 410.0,133.3 415.0,99.1 420.0,367.2 425.0,333.5 430.0,334.0 435.0,328.8 440.0,44.8 445.0,299.8 450.0,178.1 455.0,190.7 460.0,323.3 465.0,186.4 470.0,178.2 475.0,152.7 480.0,65.1 485.0,23.3 490.0,341.9 495.0,107.4 500.0,234.7 505.0,91.4 510.0,198.2 515.0,191.2 520.0,196.4 525.0,346.5 530.0,34.8 535.0,133.4 540.0,350.6 545.0,124.8 550.0,101.0 555.0,351.5 560.0,185.4 565.0,322.9 570.0,197.4 575.0,119.9 580.0,216.0 585.0,368.3 590.0,300.1 595.0,172.2 600.0,246.9 605.0,224.4 610.0,14.4 615.0,17.7 620.0,136.7 625.0,230.5 630.0,300.1 635.0,257.5 640.0,282.5 645.0,176.2 650.0,44.9 655.0,173.8 660.0,318.4 665.0,209.9 670.0,209.8 675.0,253.9 680.0,211.7 685.0,204.3 690.0,169.5 695.0,145.7 700.0,250.4 705.0,369.3 710.0,336.6 715.0,186.7 720.0,238.8 725.0,70.3 730.0,174.4 735.0,335.2 740.0,335.1 745.0,78.1 750.0,219.3 755.0,192.1 760.0,168.0 765.0,254.8 770.0,252.3 775.0,206.9 780.0,366.4 785.0,323.1 790.0,265.4 795.0,251.7 800.0,277.9 805.0,338.9 810.0,45.0 815.0,267.3 820.0,117.2 825.0,62.8 830.0,277.6 835.0,123.6 840.0,150.1 845.0,340.1 850.0,109.7 855.0,77.5 860.0,27.7 865.0,12.9 870.0,130.3 875.0,100.8 880.0,165.8 885.0,108.9 890.0,240.9 895.0,164.5 900.0,55.6 905.0,226.0 910.0,197.4 915.0,249.8 920.0,167.5 925.0,126.1 930.0,264.6 935.0,280.1 940.0,151.6 945.0,184.4 950.0,299.4 955.0,92.0 960.0,230.8 965.0,260.4 970.0,80.2 975.0,69.6 980.0,141.6 985.0,58.2 990.0,339.6 995.0,214.0 1000.0,98.5 1005.0,350.1 1010.0,367.9 1015.0,241.6 1020.0,264.4 1025.0,62.4 1030.0,353.1 1035.0,358.6 1040.0,33.0 1045.0,112.9 1050.0,245.4 1055.0,80.7 1060.0,265.7 1065.0,13.8 1070.0,201.8 1075.0,24.3 1080.0,34.3 1085.0,208.4 1090.0,82.8 1095.0,273.2 1100.0,33.4 1105.0,120.1 1110.0,177.4 1115.0,17.7 1120.0,286.4 1125.0,94.4 1130.0,186.0 1135.0,273.2 1140.0,87.4 1145.0,227.4 1150.0,169.2 1155.0,311.0 1160.0,83.0 1165.0,286.8 1170.0,187.0 1175.0,68.9 1180.0,179.9 1185.0,239.9 1190.0,35.5 1195.0,340.1 1200.0,12.0 1205.0,229.2 1210.0,273.7 1215.0,308.3 1220.0,186.0 1225.0,50.7 1230.0,276.9 1235.0,367.1 1240.0,90.8 1245.0,104.2 1250.0,233.3 1255.0,85.8 1260.0,304.6 1265.0,147.6 1270.0,121.1 1275.0,245.2 1280.0,269.7 1285.0,74.0 1290.0,233.4 1295.0,356.3 1300.0,324.8 1305.0,336.2 1310.0,135.4 1315.0,266.3 1320.0,326.6 1325.0,232.3 1330.0,284.9 1335.0,284.8 1340.0,73.9 1345.0,253.9 1350.0,174.7 1355.0,86.5 1360.0,360.0 1365.0,100.6 1370.0,263.6 1375.0,310.5 1380.0,166.4 1385.0,311.4 1390.0,87.5 1395.0,121.8 1400.0,326.6 1405.0,77.9 1410.0,114.3 1415.0,48.3 1420.0,289.5 1425.0,212.5 1430.0,344.5 1435.0,234.0 1440.0,175.7 1445.0,91.5 1450.0,84.6 1455.0,32.5 1460.0,144.5 1465.0,26.6 1470.0,190.3 1475.0,299.8 1480.0,66.4 1485.0,268.8 1490.0,59.0 1495.0,123.3 1500.0,368.1 1505.0,169.2 1510.0,219.7 1515.0,250.2 1520.0,125.4 1525.0,167.2 1530.0,368.2 1535.0,113.1 1540.0,161.0 1545.0,256.3 1550.0,226.3 1555.0,305.8 1560.0,177.6 1565.0,278.8 1570.0,101.6 1575.0,190.9 1580.0,86.4 1585.0,14.8 1590.0,85.9 1595.0,153.6 1600.0,120.1 1605.0,349.5 1610.0,175.3 1615.0,143.4 1620.0,202.8 1625.0,311.2 1630.0,68.3 1635.0,205.1 1640.0,256.8 1645.0,67.9 1650.0,297.6 1655.0,248.2 1660.0,331.6 1665.0,130.2 1670.0,341.9 1675.0,254.5 1680.0,223.5 1685.0,86.1 1690.0,286.5 1695.0,287.5 1700.0,224.5 1705.0,167.0 1710.0,160.5 1715.0,276.8 1720.0,15.2 1725.0,362.3 1730.0,188.4 1735.0,99.3 1740.0,234.8 1745.0,114.6 1750.0,71.4 1755.0,170.2 1760.0,359.3 1765.0,43.3 1770.0,261.1 1775.0,237.8 1780.0,344.0 1785.0,120.5 1790.0,25.1 1795.0,273.7 1800.0,241.0 1805.0,330.3 1810.0,131.5 1815.0,174.3 1820.0,306.0 1825.0,147.7 1830.0,309.1 1835.0,10.0 1840.0,173.7 1845.0,353.2 1850.0,354.8 1855.0,315.6 1860.0,145.0 1865.0,145.3 1870.0,104.8 1875.0,284.9 1880.0,213.6 1885.0,232.8 1890.0,218.6 1895.0,240.1 1900.0,11.2 1905.0,345.7 1910.0,187.4 1915.0,167.1 1920.0,311.6 1925.0,226.8 1930.0,52.0 1935.0,74.9 1940.0,323.3 1945.0,351.0 1950.0,134.6 1955.0,162.0 1960.0,60.8 1965.0,283.9 1970.0,306.9 1975.0,45.9 1980.0,194.5 1985.0,171.1 1990.0,138.0 1995.0,196.6 2000.0,164.4 2005.0,123.7 2010.0,228.0 2015.0,255.0 2020.0,261.1 2025.0,254.8 2030.0,107.3 2035.0,259.6 2040.0,140.5 2045.0,304.1 2050.0,19.4 2055.0,141.5 2060.0,358.6 2065.0,44.6 2070.0,284.3 2075.0,296.9 2080.0,136.0 2085.0,153.0 2090.0,265.1 2095.0,107.3 2100.0,182.1 2105.0,49.8 2110.0,173.2 2115.0,134.4 2120.0,367.9 2125.0,20.2 2130.0,358.0 2135.0,315.8 2140.0,115.6 2145.0,239.7 2150.0,265.2 2155.0,190.6 2160.0,220.1 2165.0,55.8 2170.0,58.3 2175.0,258.1 2180.0,343.5 2185.0,232.0 2190.0,11.3 2195.0,336.3 2200.0,23.3 2205.0,70.9 2210.0,150.2 2215.0,26.6 2220.0,45.8 2225.0,267.5 2230.0,334.9 2235.0,59.8 2240.0,180.9 2245.0,354.4 2250.0,51.7 2255.0,86.8 2260.0,85.3 2265.0,242.2 2270.0,197.1 2275.0,53.3 2280.0,57.6 2285.0,123.4 2290.0,50.4 2295.0,271.6 2300.0,168.6 2305.0,230.0 2310.0,312.8 2315.0,226.1 2320.0,136.3 2325.0,126.5 2330.0,125.7 2335.0,110.2 2340.0,365.7 2345.0,49.2 2350.0,17.9 2355.0,153.0 2360.0,184.3 2365.0,308.0 2370.0,196.9 2375.0,99.6 2380.0,130.7 2385.0,109.3 2390.0,214.3 2395.0,232.4 2400.0,257.0 2405.0,244.1 2410.0,357.0 2415.0,17.1 2420.0,212.2 2425.0,362.2 2430.0,223.4 2435.0,339.4 2440.0,136.0 2445.0,71.1 2450.0,145.5 2455.0,301.7 2460.0,139.1 2465.0,168.6 2470.0,48.7 2475.0,72.6 2480.0,17.8 2485.0,226.2 2490.0,366.4 2495.0,101.6 2500.0,314.4 2505.0,29.8 2510.0,235.3 2515.0,300.8 2520.0,17.4 2525.0,333.6 2530.0,141.5 2535.0,140.6 2540.0,137.4 2545.0,183.9 2550.0,77.9 2555.0,345.3 2560.0,13.9 2565.0,30.3 2570.0,128.9 2575.0,287.4 2580.0,52.3 2585.0,231.8 2590.0,177.3 2595.0,59.1 2600.0,225.4 2605.0,65.9 2610.0,188.1 2615.0,69.0 2620.0,55.4 2625.0,338.8 2630.0,97.6 2635.0,50.9 2640.0,157.5 2645.0,339.6 2650.0,265.2 2655.0,255.5 2660.0,302.1 2665.0,298.0 2670.0,345.0 2675.0,359.4 2680.0,271.8 2685.0,175.1 2690.0,239.8 2695.0,152.1 2700.0,249.1 2705.0,101.4 2710.0,230.9 2715.0,306.1 2720.0,162.2 2725.0,246.2 2730.0,124.1 2735.0,83.5 2740.0,284.5 2745.0,202.3 2750.0,86.2 2755.0,175.5 2760.0,61.9 2765.0,104.3 2770.0,269.5 2775.0,67.9 2780.0,309.3 2785.0,82.2 2790.0,319.2 2795.0,360.6 2800.0,34.4 2805.0,347.9 2810.0,49.5 2815.0,288.9 2820.0,164.3 2825.0,308.0 2830.0,359.2 2835.0,47.7 2840.0,297.7 2845.0,159.3 2850.0,300.8 2855.0,202.6 2860.0,124.9 2865.0,285.4 2870.0,192.5 2875.0,282.5 2880.0,23.4 2885.0,69.8 2890.0,76.5 2895.0,238.6 2900.0,184.0 2905.0,252.7 2910.0,343.1 2915.0,331.3 2920.0,242.9 2925.0,174.7 2930.0,185.8 2935.0,234.9 2940.0,284.9 2945.0,277.2 2950.0,123.2 2955.0,302.0 2960.0,13.4 2965.0,362.2 2970.0,315.5 2975.0,211.5 2980.0,365.2 2985.0,301.4 2990.0,58.5 2995.0,104.9 3000.0,288.0 3005.0,148.7 3010.0,104.9 3015.0,156.6 3020.0,217.7 3025.0,55.0 3030.0,74.2 3035.0,89.7 3040.0,282.1 3045.0,286.0 3050.0,238.1 3055.0,120.0 3060.0,355.9 3065.0,318.9 3070.0,87.4 3075.0,128.7 3080.0,270.6 3085.0,33.9 3090.0,37.7 3095.0,318.3 3100.0,25.0 3105.0,60.3 3110.0,186.0 3115.0,306.0 3120.0,222.0 3125.0,42.5 3130.0,259.3 3135.0,133.5 3140.0,317.8 3145.0,267.4 3150.0,166.7 3155.0,209.1 3160.0,305.3 3165.0,124.3 3170.0,136.8 3175.0,355.3 3180.0,200.6 3185.0,291.5 3190.0,191.4 3195.0,20.1 3200.0,83.2 3205.0,346.2 3210.0,251.7 3215.0,277.4 3220.0,104.1 3225.0,327.3 3230.0,342.2 3235.0,369.7 3240.0,220.2 3245.0,162.9 3250.0,117.5 3255.0,351.0 3260.0,175.7 3265.0,127.5 3270.0,193.7 3275.0,29.0 3280.0,39.0 3285.0,294.3 3290.0,89.8 3295.0,291.2 3300.0,308.3 3305.0,108.3 3310.0,158.4 3315.0,116.8 3320.0,155.0 3325.0,170.4 3330.0,251.9 3335.0,87.3 3340.0,28.2 3345.0,243.0 3350.0,100.6 3355.0,162.8 3360.0,326.3 3365.0,19.6 3370.0,130.6 3375.0,12.1 3380.0,139.1 3385.0,316.9 3390.0,351.9 3395.0,339.8 3400.0,263.3 3405.0,197.6 3410.0,247.9 3415.0,341.6 3420.0,71.4 3425.0,160.8 3430.0,295.2 3435.0,339.3 3440.0,146.4 3445.0,364.2 3450.0,352.9 3455.0,230.8 3460.0,75.9 3465.0,180.3 3470.0,234.9 3475.0,25.4 3480.0,305.0 3485.0,280.0 3490.0,370.0 3495.0,224.6 3500.0,280.0 3505.0,165.3 3510.0,289.6 3515.0,277.4 3520.0,119.8 3525.0,284.1 3530.0,221.1 3535.0,99.8 3540.0,238.5 3545.0,204.1 3550.0,102.2 3555.0,142.2 3560.0,52.6 3565.0,211.3 3570.0,298.5 3575.0,247.8 3580.0,304.8 3585.0,264.5 3590.0,134.3 3595.0,303.2 3600.0,134.1 3605.0,52.6 3610.0,127.6 3615.0,325.4 3620.0,225.7 3625.0,362.9 3630.0,332.2 3635.0,55.5 3640.0,260.2 3645.0,324.2 3650.0,348.3 3655.0,170.6 3660.0,152.5 3665.0,219.9 3670.0,73.5 3675.0,68.9 3680.0,356.2 3685.0,176.8 3690.0,54.2 3695.0,183.1 3700.0,267.9 3705.0,263.6 3710.0,238.4 3715.0,321.2 3720.0,89.0 3725.0,196.6 3730.0,226.5 3735.0,351.0 3740.0,123.3 3745.0,139.4 3750.0,76.9 3755.0,164.3 3760.0,270.4 3765.0,239.5 3770.0,22.3 3775.0,160.4 3780.0,115.5 3785.0,360.6 3790.0,259.4 3795.0,103.5 3800.0,217.0 3805.0,32.7 3810.0,55.2 3815.0,200.5 3820.0,102.2 3825.0,147.5 3830.0,164.3 3835.0,35.0 3840.0,216.0 3845.0,160.4 3850.0,362.9 3855.0,264.4 3860.0,162.9 3865.0,203.7 3870.0,300.8 3875.0,184.8 3880.0,38.2 3885.0,343.4 3890.0,166.4 3895.0,232.4 3900.0,43.3 3905.0,245.4 3910.0,83.0 3915.0,354.5 3920.0,198.4 3925.0,114.1 3930.0,334.9 3935.0,217.5 3940.0,86.9 3945.0,358.0 3950.0,320.0 3955.0,234.5 3960.0,147.9 3965.0,129.3 3970.0,300.4 3975.0,205.3 3980.0,46.8 3985.0,97.2 3990.0,119.3 3995.0,179.1 4000.0,166.1 4005.0,13.1 4010.0,221.6 4015.0,130.7 4020.0,97.0 4025.0,328.3 4030.0,282.4 4035.0,236.6 4040.0,66.1 4045.0,70.1 4050.0,297.9 4055.0,16.7 4060.0,347.9 4065.0,142.0 4070.0,304.4 4075.0,72.3 4080.0,255.1 4085.0,248.3 4090.0,280.0 4095.0,93.8 4100.0,340.4 4105.0,79.7 4110.0,55.6 4115.0,346.9 4120.0,133.2 4125.0,316.6 4130.0,191.2 4135.0,288.8 4140.0,154.9 4145.0,348.3 4150.0,120.8 4155.0,348.6 4160.0,98.6 4165.0,355.7 4170.0,206.4 4175.0,128.8 4180.0,42.3 4185.0,285.6 4190.0,188.4 4195.0,309.6 4200.0,247.4 4205.0,143.0 4210.0,229.4 4215.0,183.5 4220.0,208.1 4225.0,359.3 4230.0,244.0 4235.0,285.6 4240.0,46.3 4245.0,239.3 4250.0,236.3 4255.0,22.8 4260.0,319.1 4265.0,66.7 4270.0,53.7 4275.0,174.2 4280.0,188.6 4285.0,282.7 4290.0,64.4 4295.0,324.0 4300.0,108.3 4305.0,198.5 4310.0,50.0 4315.0,135.4 4320.0,80.1 4325.0,112.5 4330.0,202.1 4335.0,89.3 4340.0,365.4 4345.0,117.6 4350.0,284.9 4355.0,80.5 4360.0,260.8 4365.0,173.1 4370.0,229.7 4375.0,247.8 4380.0,21.5 4385.0,143.8 4390.0,174.0 4395.0,347.4 4400.0,56.9 4405.0,351.8 4410.0,44.6 4415.0,215.2 4420.0,266.4 4425.0,228.6 4430.0,202.8 4435.0,237.9 4440.0,284.3 4445.0,275.7 4450.0,137.8 4455.0,63.5 4460.0,304.7 4465.0,367.4 4470.0,177.1 4475.0,322.1 4480.0,180.7 4485.0,69.6 4490.0,310.3 4495.0,322.2 4500.0,168.9 4505.0,341.1 4510.0,80.6 4515.0,195.4 4520.0,289.0 4525.0,235.1 4530.0,37.5 4535.0,63.6 4540.0,332.0 4545.0,31.5 4550.0,221.6 4555.0,303.4 4560.0,64.0 4565.0,227.6 4570.0,93.6 4575.0,38.3 4580.0,190.4 4585.0,275.0 4590.0,324.3 4595.0,127.4 4600.0,31.5 4605.0,260.1 4610.0,146.4 4615.0,190.9 4620.0,63.3 4625.0,259.3 4630.0,282.0 4635.0,334.0 4640.0,172.4 4645.0,114.2 4650.0,76.4 4655.0,326.6 4660.0,95.6 4665.0,366.9 4670.0,55.1 4675.0,293.1 4680.0,150.6 4685.0,106.8 4690.0,109.6 4695.0,22.7 4700.0,84.3 4705.0,295.6 4710.0,360.7 4715.0,27.8 4720.0,37.2 4725.0,107.0 4730.0,70.5 4735.0,263.3 4740.0,224.6 4745.0,316.4 4750.0,337.5 4755.0,52.9 4760.0,91.9 4765.0,102.6 4770.0,188.9 4775.0,250.0 4780.0,324.8 4785.0,12.5 4790.0,324.0 4795.0,340.2 4800.0,351.0 4805.0,346.2 4810.0,41.0 4815.0,126.9 4820.0,171.2 4825.0,44.6 4830.0,27.0 4835.0,243.6 4840.0,79.2 4845.0,160.9 4850.0,216.9 4855.0,359.1 4860.0,153.1 4865.0,106.5 4870.0,341.2 4875.0,289.2 4880.0,146.4 4885.0,189.1 4890.0,323.3 4895.0,216.2 4900.0,73.1 4905.0,96.0 4910.0,270.6 4915.0,117.2 4920.0,24.6 4925.0,293.7 4930.0,161.8 4935.0,53.0 4940.0,95.5 4945.0,192.7 4950.0,288.7 4955.0,158.0 4960.0,347.2 4965.0,317.8 4970.0,140.5 4975.0,315.9 4980.0,119.8 4985.0,58.6 4990.0,50.5 4995.0,34.1 5000.0,256.6 5005.0,325.6 5010.0,101.4 5015.0,184.0 5020.0,203.3 5025.0,113.2 5030.0,140.8 5035.0,352.1 5040.0,75.5 5045.0,35.2 5050.0,142.5 5055.0,13.7 5060.0,57.1 5065.0,152.1 5070.0,129.3 5075.0,152.9 5080.0,364.5 5085.0,219.0 5090.0,61.8 5095.0,284.0 5100.0,177.0 5105.0,325.0 5110.0,225.3 5115.0,58.1 5120.0,139.3 5125.0,142.2 5130.0,318.7 5135.0,137.6 5140.0,299.3 5145.0,113.5 5150.0,129.4 5155.0,357.6 5160.0,123.0 5165.0,358.5 5170.0,245.6 5175.0,246.7 5180.0,63.3 5185.0,345.1 5190.0,257.0 5195.0,348.1 5200.0,261.4 5205.0,124.2 5210.0,128.5 5215.0,350.1 5220.0,96.2 5225.0,213.3 5230.0,306.3 5235.0,44.1 5240.0,111.6 5245.0,289.7 5250.0,107.7 5255.0,333.7 5260.0,234.9 5265.0,200.9 5270.0,248.6 5275.0,144.1 5280.0,136.6 5285.0,147.2 5290.0,24.7 5295.0,134.1 5300.0,127.6 5305.0,322.0 5310.0,280.0 5315.0,83.9 5320.0,279.8 5325.0,108.7 5330.0,33.1 5335.0,104.7 5340.0,87.5 5345.0,307.4 5350.0,151.9 5355.0,151.6 5360.0,304.3 5365.0,186.9 5370.0,283.9 5375.0,32.2 5380.0,159.9 5385.0,134.3 5390.0,42.1 5395.0,133.2 5400.0,153.6 5405.0,188.5 5410.0,318.0 5415.0,238.9 5420.0,137.5 5425.0,30.5 5430.0,341.0 5435.0,190.0 5440.0,247.5 5445.0,351.1 5450.0,336.9 5455.0,131.8 5460.0,68.7 5465.0,44.0 5470.0,41.8 5475.0,38.0 5480.0,330.1 5485.0,274.3 5490.0,255.1 5495.0,276.2 5500.0,136.0 5505.0,215.9 5510.0,364.5 5515.0,183.0 5520.0,136.0 5525.0,355.3 5530.0,204.9 5535.0,121.5 5540.0,215.5 5545.0,113.4 5550.0,106.0 5555.0,274.4 5560.0,112.5 5565.0,298.3 5570.0,84.2 5575.0,328.7 5580.0,283.6 5585.0,279.1 5590.0,270.7 5595.0,15.8 5600.0,85.4 5605.0,186.8 5610.0,55.2 5615.0,233.5 5620.0,179.2 5625.0,293.7 5630.0,266.3 5635.0,180.6 5640.0,171.9 5645.0,303.4 5650.0,68.1 5655.0,95.1 5660.0,269.6 5665.0,38.7 5670.0,279.4 5675.0,263.2 5680.0,283.4 5685.0,27.0 5690.0,335.9 5695.0,296.3 5700.0,341.0 5705.0,68.7 5710.0,354.0 5715.0,322.0 5720.0,305.0 5725.0,22.7 5730.0,305.8 5735.0,221.6 5740.0,326.1 5745.0,334.5 5750.0,257.5 5755.0,21.9 5760.0,78.8 5765.0,66.9 5770.0,157.8 5775.0,89.9 5780.0,76.9 5785.0,185.5 5790.0,99.3 5795.0,211.7 5800.0,184.6 5805.0,233.6 5810.0,334.6 5815.0,53.7 5820.0,216.2 5825.0,254.7 5830.0,193.1 5835.0,47.0 5840.0,325.6 5845.0,204.6 5850.0,279.0 5855.0,247.0 5860.0,156.4 5865.0,325.7 5870.0,108.4 5875.0,52.7 5880.0,141.0 5885.0,96.2 5890.0,24.0 5895.0,298.8 5900.0,220.9 5905.0,357.8 5910.0,56.7 5915.0,239.9 5920.0,346.6 5925.0,124.6 5930.0,255.7 5935.0,128.4 5940.0,234.9 5945.0,367.4 5950.0,51.9 5955.0,259.4 5960.0,78.9 5965.0,219.6 5970.0,340.1 5975.0,153.8 5980.0,100.5 5985.0,42.4 5990.0,197.4 5995.0,169.0 6000.0,203.4 6005.0,129.7 6010.0,318.4 6015.0,70.8 6020.0,254.4 6025.0,211.9 6030.0,182.1 6035.0,37.0 6040.0,241.2 6045.0,116.0 6050.0,232.4 6055.0,275.0 6060.0,262.8 6065.0,211.9 6070.0,276.2 6075.0,174.9 6080.0,134.3 6085.0,67.4 6090.0,126.6 6095.0,196.4 6100.0,89.5 6105.0,96.0 6110.0,341.5 6115.0,241.4 6120.0,113.5 6125.0,80.6 6130.0,218.6 6135.0,37.6 6140.0,162.7 6145.0,33.4 6150.0,300.6 6155.0,39.0 6160.0,50.6 6165.0,339.8 6170.0,68.0 6175.0,47.0 6180.0,349.7 6185.0,282.4 6190.0,86.7 6195.0,131.3 6200.0,173.8 6205.0,200.5 6210.0,291.8 6215.0,240.5 6220.0,47.7 6225.0,210.5 6230.0,211.3 6235.0,215.2 6240.0,272.5 6245.0,171.2 6250.0,114.6 6255.0,142.4 6260.0,294.5 6265.0,222.9 6270.0,83.0 6275.0,89.3 6280.0,358.1 6285.0,271.2 6290.0,29.2 6295.0,60.2 6300.0,173.8 6305.0,53.6 6310.0,368.5 6315.0,365.6 6320.0,36.0 6325.0,211.7 6330.0,153.2 6335.0,290.9 6340.0,331.2 6345.0,28.1 6350.0,260.0 6355.0,263.1 6360.0,341.7 6365.0,334.6 6370.0,268.7 6375.0,358.4 6380.0,39.4 6385.0,26.2 6390.0,215.6 6395.0,26.7 6400.0,79.2 6405.0,260.3 6410.0,51.1 6415.0,91.6 6420.0,41.1 6425.0,337.0 6430.0,235.9 6435.0,214.6 6440.0,313.8 6445.0,297.3 6450.0,139.8 6455.0,235.9 6460.0,335.8 6465.0,284.3 6470.0,76.5 6475.0,181.4 6480.0,368.5 6485.0,115.4 6490.0,198.4 6495.0,76.3 6500.0,198.9 6505.0,156.6 6510.0,54.2 6515.0,298.1 6520.0,165.0 6525.0,97.1 6530.0,146.5 6535.0,357.4 6540.0,191.1 6545.0,334.8 6550.0,53.1 6555.0,193.0 6560.0,57.6 6565.0,304.6 6570.0,315.8 6575.0,237.3 6580.0,11.5 6585.0,331.6 6590.0,69.2 6595.0,244.0 6600.0,266.8 6605.0,294.8 6610.0,260.0 6615.0,120.5 6620.0,365.3 6625.0,313.9 6630.0,135.5 6635.0,285.6 6640.0,282.6 6645.0,277.4 6650.0,330.1 6655.0,67.3 6660.0,22.6 6665.0,311.0 6670.0,187.2 6675.0,160.1 6680.0,300.5 6685.0,350.5 6690.0,255.0 6695.0,195.2 6700.0,130.2 6705.0,308.4 6710.0,131.4 6715.0,339.1 6720.0,141.3 6725.0,272.7 6730.0,239.3 6735.0,341.1 6740.0,106.5 6745.0,91.9 6750.0,140.2 6755.0,158.5 6760.0,336.1 6765.0,257.0 6770.0,275.3 6775.0,345.9 6780.0,60.1 6785.0,100.5 6790.0,303.1 6795.0,332.2 6800.0,118.0 6805.0,62.4 6810.0,364.8 6815.0,115.9 6820.0,14.6 6825.0,117.6 6830.0,353.2 6835.0,190.0 6840.0,140.0 6845.0,342.8 6850.0,266.7 6855.0,162.7 6860.0,153.2 " />
<text x="60.0" y="405" font-size="12" fill="#444" transform="rotate(55 60.0,405)">05:39:27.804</text>
<text x="140.0" y="405" font-size="12" fill="#444" transform="rotate(55 140.0,405)">05:39:29.574</text>
<text x="220.0" y="405" font-size="12" fill="#444" transform="rotate(55 220.0,405)">05:39:31.358</text>
<text x="300.0" y="405" font-size="12" fill="#444" transform="rotate(55 300.0,405)">05:39:33.120</text>
<text x="380.0" y="405" font-size="12" fill="#444" transform="rotate(55 380.0,405)">05:39:34.899</text>
<text x="460.0" y="405" font-size="12" fill="#444" transform="rotate(55 460.0,405)">05:39:36.655</text>
<text x="540.0" y="405" font-size="12" fill="#444" transform="rotate(55 540.0,405)">05:39:38.425</text>
<text x="620.0" y="405" font-size="12" fill="#444" transform="rotate(55 620.0,405)">05:39:40.196</text>
<text x="700.0" y="405" font-size="12" fill="#444" transform="rotate(55 700.0,405)">05:39:41.970</text>
<text x="780.0" y="405" font-size="12" fill="#444" transform="rotate(55 780.0,405)">05:39:43.773</text>
<text x="860.0" y="405" font-size="12" fill="#444" transform="rotate(55 860.0,405)">05:39:45.561</text>
<text x="940.0" y="405" font-size="12" fill="#444" transform="rotate(55 940.0,405)">05:39:47.341</text>
<text x="1020.0" y="405" font-size="12" fill="#444" transform="rotate(55 1020.0,405)">05:39:49.134</text>
<text x="1100.0" y="405" font-size="12" fill="#444" transform="rotate(55 1100.0,405)">05:39:50.922</text>
<text x="1180.0" y="405" font-size="12" fill="#444" transform="rotate(55 1180.0,405)">05:39:52.691</text>
<text x="1260.0" y="405" font-size="12" fill="#444" transform="rotate(55 1260.0,405)">05:39:54.476</text>
<text x="1340.0" y="405" font-size="12" fill="#444" transform="rotate(55 1340.0,405)">05:39:56.295</text>
<text x="1420.0" y="405" font-size="12" fill="#444" transform="rotate(55 1420.0,405)">05:39:58.084</text>
<text x="1500.0" y="405" font-size="12" fill="#444" transform="rotate(55 1500.0,405)">05:39:59.895</text>
<text x="1580.0" y="405" font-size="12" fill="#444" transform="rotate(55 1580.0,405)">05:40:01.731</text>
<text x="1660.0" y="405" font-size="12" fill="#444" transform="rotate(55 1660.0,405)">05:40:03.546</text>
<text x="1740.0" y="405" font-size="12" fill="#444" transform="rotate(55 1740.0,405)">05:40:05.368</text>
<text x="1820.0" y="405" font-size="12" fill="#444" transform="rotate(55 1820.0,405)">05:40:07.158</text>
<text x="1900.0" y="405" font-size="12" fill="#444" transform="rotate(55 1900.0,405)">05:40:08.950</text>
<text x="1980.0" y="405" font-size="12" fill="#444" transform="rotate(55 1980.0,405)">05:40:10.772</text>
<text x="2060.0" y="405" font-size="12" fill="#444" transform="rotate(55 2060.0,405)">05:40:12.565</text>
<text x="2140.0" y="405" font-size="12" fill="#444" transform="rotate(55 2140.0,405)">05:40:14.362</text>
<text x="2220.0" y="405" font-size="12" fill="#444" transform="rotate(55 2220.0,405)">05:40:16.173</text>
<text x="2300.0" y="405" font-size="12" fill="#444" transform="rotate(55 2300.0,405)">05:40:17.980</text>
<text x="2380.0" y="405" font-size="12" fill="#444" transform="rotate(55 2380.0,405)">05:40:19.798</text>
<text x="2460.0" y="405" font-size="12" fill="#444" transform="rotate(55 2460.0,405)">05:40:21.591</text>
<text x="2540.0" y="405" font-size="12" fill="#444" transform="rotate(55 2540.0,405)">05:40:23.401</text>
<text x="2620.0" y="405" font-size="12" fill="#444" transform="rotate(55 2620.0,405)">05:40:25.241</text>
<text x="2700.0" y="405" font-size="12" fill="#444" transform="rotate(55 2700.0,405)">05:40:27.049</text>
<text x="2780.0" y="405" font-size="12" fill="#444" transform="rotate(55 2780.0,405)">05:40:28.857</text>
<text x="2860.0" y="405" font-size="12" fill="#444" transform="rotate(55 2860.0,405)">05:40:30.682</text>
<text x="2940.0" y="405" font-size="12" fill="#444" transform="rotate(55 2940.0,405)">05:40:32.487</text>
<text x="3020.0" y="405" font-size="12" fill="#444" transform="rotate(55 3020.0,405)">05:40:34.298</text>
<text x="3100.0" y="405" font-size="12" fill="#444" transform="rotate(55 3100.0,405)">05:40:36.135</text>
<text x="3180.0" y="405" font-size="12" fill="#444" transform="rotate(55 3180.0,405)">05:40:37.953</text>
<text x="3260.0" y="405" font-size="12" fill="#444" transform="rotate(55 3260.0,405)">05:40:39.783</text>
<text x="3340.0" y="405" font-size="12" fill="#444" transform="rotate(55 3340.0,405)">05:40:41.609</text>
<text x="3420.0" y="405" font-size="12" fill="#444" transform="rotate(55 3420.0,405)">05:40:43.391</text>
<text x="3500.0" y="405" font-size="12" fill="#444" transform="rotate(55 3500.0,405)">05:40:45.173</text>
<text x="3580.0" y="405" font-size="12" fill="#444" transform="rotate(55 3580.0,405)">05:40:47.010</text>
<text x="3660.0" y="405" font-size="12" fill="#444" transform="rotate(55 3660.0,405)">05:40:48.819</text>
<text x="3740.0" y="405" font-size="12" fill="#444" transform="rotate(55 3740.0,405)">05:40:50.627</text>
<text x="3820.0" y="405" font-size="12" fill="#444" transform="rotate(55 3820.0,405)">05:40:52.435</text>
<text x="3900.0" y="405" font-size="12" fill="#444" transform="rotate(55 3900.0,405)">05:40:54.234</text>
<text x="3980.0" y="405" font-size="12" fill="#444" transform="rotate(55 3980.0,405)">05:40:56.018</text>
<text x="4060.0" y="405" font-size="12" fill="#444" transform="rotate(55 4060.0,405)">05:40:57.808</text>
<text x="4140.0" y="405" font-size="12" fill="#444" transform="rotate(55 4140.0,405)">05:40:59.594</text>
<text x="4220.0" y="405" font-size="12" fill="#444" transform="rotate(55 4220.0,405)">05:41:01.403</text>
<text x="4300.0" y="405" font-size="12" fill="#444" transform="rotate(55 4300.0,405)">05:41:03.199</text>
<text x="4380.0" y="405" font-size="12" fill="#444" transform="rotate(55 4380.0,405)">05:41:04.982</text>
<text x="4460.0" y="405" font-size="12" fill="#444" transform="rotate(55 4460.0,405)">05:41:06.786</text>
<text x="4540.0" y="405" font-size="12" fill="#444" transform="rotate(55 4540.0,405)">05:41:08.549</text>
<text x="4620.0" y="405" font-size="12" fill="#444" transform="rotate(55 4620.0,405)">05:41:10.331</text>
<text x="4700.0" y="405" font-size="12" fill="#444" transform="rotate(55 4700.0,405)">05:41:12.135</text>
<text x="4780.0" y="405" font-size="12" fill="#444" transform="rotate(55 4780.0,405)">05:41:13.910</text>
<text x="4860.0" y="405" font-size="12" fill="#444" transform="rotate(55 4860.0,405)">05:41:15.692</text>
<text x="4940.0" y="405" font-size="12" fill="#444" transform="rotate(55 4940.0,405)">05:41:17.484</text>
<text x="5020.0" y="405" font-size="12" fill="#444" transform="rotate(55 5020.0,405)">05:41:19.241</text>
<text x="5100.0" y="405" font-size="12" fill="#444" transform="rotate(55 5100.0,405)">05:41:21.058</text>
<text x="5180.0" y="405" font-size="12" fill="#444" transform="rotate(55 5180.0,405)">05:41:22.838</text>
<text x="5260.0" y="405" font-size="12" fill="#444" transform="rotate(55 5260.0,405)">05:41:24.591</text>
<text x="5340.0" y="405" font-size="12" fill="#444" transform="rotate(55 5340.0,405)">05:41:26.377</text>
<text x="5420.0" y="405" font-size="12" fill="#444" transform="rotate(55 5420.0,405)">05:41:28.151</text>
<text x="5500.0" y="405" font-size="12" fill="#444" transform="rotate(55 5500.0,405)">05:41:29.936</text>
<text x="5580.0" y="405" font-size="12" fill="#444" transform="rotate(55 5580.0,405)">05:41:31.722</text>
<text x="5660.0" y="405" font-size="12" fill="#444" transform="rotate(55 5660.0,405)">05:41:33.514</text>
<text x="5740.0" y="405" font-size="12" fill="#444" transform="rotate(55 5740.0,405)">05:41:35.356</text>
<text x="5820.0" y="405" font-size="12" fill="#444" transform="rotate(55 5820.0,405)">05:41:37.156</text>
<text x="5900.0" y="405" font-size="12" fill="#444" transform="rotate(55 5900.0,405)">05:41:38.942</text>
<text x="5980.0" y="405" font-size="12" fill="#444" transform="rotate(55 5980.0,405)">05:41:40.736</text>
<text x="6060.0" y="405" font-size="12" fill="#444" transform="rotate(55 6060.0,405)">05:41:42.541</text>
<text x="6140.0" y="405" font-size="12" fill="#444" transform="rotate(55 6140.0,405)">05:41:44.342</text>
<text x="6220.0" y="405" font-size="12" fill="#444" transform="rotate(55 6220.0,405)">05:41:46.121</text>
<text x="6300.0" y="405" font-size="12" fill="#444" transform="rotate(55 6300.0,405)">05:41:47.890</text>
<text x="6380.0" y="405" font-size="12" fill="#444" transform="rotate(55 6380.0,405)">05:41:49.681</text>
<text x="6460.0" y="405" font-size="12" fill="#444" transform="rotate(55 6460.0,405)">05:41:51.486</text>
<text x="6540.0" y="405" font-size="12" fill="#444" transform="rotate(55 6540.0,405)">05:41:53.247</text>
<text x="6620.0" y="405" font-size="12" fill="#444" transform="rotate(55 6620.0,405)">05:41:55.043</text>
<text x="6700.0" y="405" font-size="12" fill="#444" transform="rotate(55 6700.0,405)">05:41:56.842</text>
<text x="6780.0" y="405" font-size="12" fill="#444" transform="rotate(55 6780.0,405)">05:41:58.613</text>
<text x="6860.0" y="405" font-size="12" fill="#444" transform="rotate(55 6860.0,405)">05:42:00.351</text>
</svg>
