<svg width="6880" height="480" xmlns="http://www.w3.org/2000/svg">
<rect x="0" y="0" width="6880" height="480" fill="white" />
<line x1="60" y1="370.0" x2="6860" y2="370.0" stroke="#e0e0e0" />
<text x="5" y="374.0" font-size="12" fill="#333">0.00</text>
<line x1="60" y1="310.0" x2="6860" y2="310.0" stroke="#e0e0e0" />
<text x="5" y="314.0" font-size="12" fill="#333">3.34</text>
<line x1="60" y1="250.0" x2="6860" y2="250.0" stroke="#e0e0e0" />
<text x="5" y="254.0" font-size="12" fill="#333">6.67</text>
<line x1="60" y1="190.0" x2="6860" y2="190.0" stroke="#e0e0e0" />
<text x="5" y="194.0" font-size="12" fill="#333">10.00</text>
<line x1="60" y1="130.0" x2="6860" y2="130.0" stroke="#e0e0e0" />
<text x="5" y="134.0" font-size="12" fill="#333">13.33</text>
<line x1="60" y1="70.0" x2="6860" y2="70.0" stroke="#e0e0e0" />
<text x="5" y="74.0" font-size="12" fill="#333">16.66</text>
<line x1="60" y1="10.0" x2="6860" y2="10.0" stroke="#e0e0e0" />
<text x="5" y="14.0" font-size="12" fill="#333">19.99</text>
<polyline fill="none" stroke="blue" stroke-width="2" points="60.0,117.6 65.0,272.6 70.0,83.0 75.0,249.0 80.0,262.6 85.0,310.1 90.0,157.1 95.0,231.8 100.0,324.7 105.0,19.2 110.0,11.5 115.0,135.2 120.0,117.1 125.0,220.2 130.0,206.6 135.0,226.3 140.0,222.9 145.0,160.5 150.0,237.0 155.0,283.3 160.0,306.4 165.0,120.8 170.0,276.3 175.0,237.3 180.0,45.7 185.0,91.0 190.0,235.0 195.0,142.7 200.0,250.0 205.0,32.2 210.0,210.6 215.0,220.7 220.0,182.6 225.0,331.6 230.0,327.6 235.0,265.8 240.0,195.8 245.0,156.4 250.0,334.7 255.0,111.9 260.0,165.1 265.0,236.7 270.0,358.4 275.0,17.7 280.0,59.8 285.0,266.3 290.0,135.7 295.0,18.5 300.0,312.4 305.0,16.0 310.0,218.9 315.0,343.6 320.0,174.2 325.0,157.2 330.0,164.1 335.0,229.7 340.0,241.1 345.0,45.6 350.0,331.3 355.0,155.9 360.0,342.0 365.0,57.7 370.0,336.2 375.0,40.4 380.0,219.5 385.0,282.4 390.0,95.7 395.0,63.3 400.0,23.6 405.0,213.1 410.0,226.1 415.0,223.0 420.0,106.1 425.0,66.4 430.0,283.0 435.0,242.8 440.0,213.4 445.0,17.9 450.0,128.5 455.0,220.0 460.0,48.0 465.0,132.4 470.0,57.2 475.0,59.6 480.0,253.3 485.0,121.4 490.0,91.9 495.0,358.9 500.0,288.4 505.0,106.7 510.0,230.4 515.0,327.8 520.0,348.1 525.0,243.8 530.0,204.3 535.0,331.8 540.0,188.8 545.0,68.8 550.0,295.4 555.0,328.0 560.0,111.4 565.0,138.6 570.0,213.5 575.0,110.6 580.0,142.9 585.0,54.7 590.0,77.3 595.0,17.7 600.0,341.9 605.0,86.4 610.0,184.3 615.0,47.3 620.0,78.6 625.0,217.5 630.0,358.1 635.0,182.6 640.0,286.4 645.0,268.5 650.0,149.8 655.0,68.2 660.0,219.4 665.0,68.7 670.0,154.8 675.0,356.8 680.0,310.6 685.0,39.0 690.0,120.5 695.0,281.3 700.0,186.0 705.0,277.8 710.0,334.8 715.0,317.0 720.0,266.8 725.0,15.9 730.0,165.7 735.0,214.6 740.0,285.2 745.0,311.7 750.0,233.0 755.0,63.2 760.0,348.2 765.0,311.4 770.0,166.9 775.0,110.8 780.0,183.5 785.0,41.5 790.0,11.3 795.0,183.5 800.0,256.5 805.0,342.8 810.0,314.9 815.0,320.9 820.0,149.9 825.0,133.6 830.0,62.6 835.0,176.7 840.0,249.3 845.0,338.0 850.0,368.8 855.0,71.0 860.0,341.1 865.0,112.2 870.0,27.8 875.0,121.9 880.0,120.7 885.0,69.5 890.0,82.6 895.0,333.9 900.0,23.1 905.0,211.7 910.0,289.7 915.0,95.0 920.0,237.1 925.0,109.5 930.0,332.1 935.0,196.5 940.0,255.0 945.0,141.8 950.0,330.6 955.0,122.1 960.0,333.2 965.0,57.2 970.0,288.5 975.0,329.4 980.0,30.9 985.0,154.8 990.0,319.0 995.0,62.5 1000.0,129.1 1005.0,284.4 1010.0,50.1 1015.0,163.4 1020.0,40.2 1025.0,257.0 1030.0,304.7 1035.0,308.0 1040.0,230.2 1045.0,267.0 1050.0,89.2 1055.0,93.4 1060.0,354.0 1065.0,178.7 1070.0,53.6 1075.0,315.3 1080.0,276.2 1085.0,136.6 1090.0,332.9 1095.0,57.2 1100.0,354.3 1105.0,365.1 1110.0,292.4 1115.0,295.0 1120.0,278.1 1125.0,106.7 1130.0,24.1 1135.0,290.3 1140.0,108.1 1145.0,140.6 1150.0,220.0 1155.0,259.6 1160.0,163.4 1165.0,110.2 1170.0,160.2 1175.0,252.5 1180.0,363.5 1185.0,59.7 1190.0,362.5 1195.0,196.9 1200.0,23.1 1205.0,163.5 1210.0,15.9 1215.0,233.5 1220.0,349.4 1225.0,334.6 1230.0,318.4 1235.0,141.8 1240.0,14.4 1245.0,302.6 1250.0,105.1 1255.0,280.9 1260.0,271.8 1265.0,242.0 1270.0,56.1 1275.0,84.9 1280.0,179.0 1285.0,244.0 1290.0,266.8 1295.0,263.2 1300.0,361.7 1305.0,303.7 1310.0,41.4 1315.0,85.8 1320.0,161.6 1325.0,40.3 1330.0,268.0 1335.0,250.5 1340.0,282.8 1345.0,45.1 1350.0,257.7 1355.0,70.3 1360.0,140.2 1365.0,184.1 1370.0,206.2 1375.0,144.7 1380.0,208.5 1385.0,92.9 1390.0,183.0 1395.0,347.0 1400.0,127.1 1405.0,44.3 1410.0,186.5 1415.0,331.1 1420.0,197.9 1425.0,199.1 1430.0,82.1 1435.0,299.7 1440.0,115.7 1445.0,183.4 1450.0,185.5 1455.0,343.6 1460.0,322.0 1465.0,226.7 1470.0,74.2 1475.0,310.9 1480.0,267.8 1485.0,106.4 1490.0,35.9 1495.0,173.4 1500.0,143.6 1505.0,36.2 1510.0,362.5 1515.0,335.6 1520.0,285.1 1525.0,354.9 1530.0,170.6 1535.0,57.9 1540.0,242.7 1545.0,146.5 1550.0,26.8 1555.0,297.8 1560.0,315.9 1565.0,15.7 1570.0,332.6 1575.0,337.1 1580.0,173.7 1585.0,147.2 1590.0,352.6 1595.0,23.0 1600.0,101.6 1605.0,259.7 1610.0,81.7 1615.0,253.7 1620.0,196.1 1625.0,190.9 1630.0,98.5 1635.0,321.0 1640.0,311.2 1645.0,228.5 1650.0,236.4 1655.0,271.0 1660.0,169.0 1665.0,366.5 1670.0,357.0 1675.0,265.8 1680.0,156.9 1685.0,142.4 1690.0,281.5 1695.0,41.6 1700.0,152.0 1705.0,85.3 1710.0,264.0 1715.0,29.6 1720.0,337.3 1725.0,126.0 1730.0,261.4 1735.0,336.9 1740.0,313.4 1745.0,162.7 1750.0,166.9 1755.0,198.1 1760.0,89.3 1765.0,100.0 1770.0,41.8 1775.0,249.0 1780.0,11.7 1785.0,242.5 1790.0,93.2 1795.0,197.2 1800.0,313.5 1805.0,66.8 1810.0,317.2 1815.0,86.4 1820.0,310.7 1825.0,234.1 1830.0,276.3 1835.0,299.6 1840.0,109.6 1845.0,50.8 1850.0,297.2 1855.0,38.0 1860.0,318.0 1865.0,186.4 1870.0,299.2 1875.0,188.7 1880.0,173.3 1885.0,10.1 1890.0,89.9 1895.0,271.5 1900.0,342.2 1905.0,42.5 1910.0,90.0 1915.0,105.2 1920.0,105.1 1925.0,171.0 1930.0,277.9 1935.0,108.0 1940.0,232.2 1945.0,236.6 1950.0,240.2 1955.0,51.1 1960.0,89.6 1965.0,141.0 1970.0,334.4 1975.0,67.3 1980.0,66.6 1985.0,23.4 1990.0,329.9 1995.0,34.8 2000.0,144.9 2005.0,20.3 2010.0,63.6 2015.0,97.9 2020.0,238.1 2025.0,184.7 2030.0,36.3 2035.0,356.3 2040.0,359.5 2045.0,184.9 2050.0,340.1 2055.0,224.9 2060.0,362.8 2065.0,22.1 2070.0,334.9 2075.0,167.0 2080.0,37.6 2085.0,289.1 2090.0,21.6 2095.0,313.3 2100.0,168.9 2105.0,368.3 2110.0,353.2 2115.0,272.3 2120.0,293.2 2125.0,303.4 2130.0,347.9 2135.0,232.2 2140.0,11.4 2145.0,280.8 2150.0,369.9 2155.0,244.1 2160.0,55.1 2165.0,222.5 2170.0,11.8 2175.0,304.8 2180.0,169.5 2185.0,269.1 2190.0,190.9 2195.0,209.2 2200.0,333.0 2205.0,164.4 2210.0,267.9 2215.0,48.4 2220.0,259.5 2225.0,351.6 2230.0,66.1 2235.0,266.0 2240.0,148.1 2245.0,346.9 2250.0,56.4 2255.0,185.9 2260.0,275.6 2265.0,71.4 2270.0,349.1 2275.0,367.8 2280.0,87.6 2285.0,343.2 2290.0,113.9 2295.0,254.9 2300.0,35.8 2305.0,110.1 2310.0,187.8 2315.0,351.3 2320.0,266.1 2325.0,31.6 2330.0,227.1 2335.0,127.2 2340.0,327.8 2345.0,61.3 2350.0,334.6 2355.0,97.8 2360.0,346.8 2365.0,228.7 2370.0,370.0 2375.0,235.9 2380.0,369.4 2385.0,160.4 2390.0,175.5 2395.0,90.9 2400.0,301.3 2405.0,86.5 2410.0,125.8 2415.0,289.0 2420.0,212.4 2425.0,48.9 2430.0,314.7 2435.0,145.7 2440.0,363.1 2445.0,183.2 2450.0,25.4 2455.0,344.1 2460.0,345.6 2465.0,338.3 2470.0,67.0 2475.0,197.9 2480.0,51.1 2485.0,353.4 2490.0,166.5 2495.0,172.5 2500.0,58.5 2505.0,10.0 2510.0,63.2 2515.0,270.8 2520.0,46.8 2525.0,210.8 2530.0,115.6 2535.0,337.2 2540.0,81.1 2545.0,99.1 2550.0,61.9 2555.0,62.1 2560.0,145.2 2565.0,350.1 2570.0,36.8 2575.0,132.0 2580.0,152.7 2585.0,278.8 2590.0,354.1 2595.0,244.9 2600.0,184.6 2605.0,28.9 2610.0,204.9 2615.0,289.3 2620.0,66.1 2625.0,14.1 2630.0,358.8 2635.0,225.7 2640.0,337.0 2645.0,85.8 2650.0,130.5 2655.0,63.2 2660.0,182.1 2665.0,289.9 2670.0,226.1 2675.0,135.5 2680.0,176.8 2685.0,84.6 2690.0,214.8 2695.0,108.3 2700.0,311.2 2705.0,289.2 2710.0,253.8 2715.0,229.9 2720.0,23.2 2725.0,137.6 2730.0,59.0 2735.0,308.2 2740.0,315.9 2745.0,47.2 2750.0,313.5 2755.0,140.4 2760.0,106.8 2765.0,195.9 2770.0,340.1 2775.0,299.6 2780.0,97.2 2785.0,144.1 2790.0,110.6 2795.0,353.6 2800.0,204.6 2805.0,272.3 2810.0,310.1 2815.0,155.7 2820.0,298.4 2825.0,70.9 2830.0,102.7 2835.0,12.6 2840.0,221.2 2845.0,35.8 2850.0,112.4 2855.0,226.0 2860.0,194.9 2865.0,157.7 2870.0,321.1 2875.0,278.6 2880.0,156.5 2885.0,204.9 2890.0,266.9 2895.0,262.0 2900.0,307.5 2905.0,305.1 2910.0,76.0 2915.0,226.2 2920.0,304.8 2925.0,156.6 2930.0,310.4 2935.0,252.4 2940.0,97.1 2945.0,47.5 2950.0,17.9 2955.0,58.9 2960.0,196.1 2965.0,290.5 2970.0,64.3 2975.0,361.2 2980.0,203.9 2985.0,90.6 2990.0,246.3 2995.0,127.1 3000.0,310.0 3005.0,121.2 3010.0,49.3 3015.0,77.3 3020.0,234.7 3025.0,215.6 3030.0,368.3 3035.0,259.3 3040.0,287.6 3045.0,361.7 3050.0,358.9 3055.0,126.3 3060.0,190.7 3065.0,202.3 3070.0,161.2 3075.0,34.8 3080.0,201.5 3085.0,118.3 3090.0,124.9 3095.0,217.0 3100.0,288.7 3105.0,358.3 3110.0,118.3 3115.0,301.8 3120.0,296.5 3125.0,190.1 3130.0,64.0 3135.0,227.3 3140.0,273.7 3145.0,191.7 3150.0,53.9 3155.0,340.9 3160.0,26.6 3165.0,35.2 3170.0,243.7 3175.0,105.6 3180.0,263.9 3185.0,199.5 3190.0,364.1 3195.0,199.8 3200.0,79.2 3205.0,14.7 3210.0,352.8 3215.0,251.3 3220.0,265.3 3225.0,177.3 3230.0,236.5 3235.0,305.9 3240.0,35.9 3245.0,202.9 3250.0,288.5 3255.0,226.3 3260.0,254.9 3265.0,29.3 3270.0,44.7 3275.0,331.1 3280.0,23.9 3285.0,126.0 3290.0,300.8 3295.0,174.0 3300.0,335.1 3305.0,241.6 3310.0,215.2 3315.0,321.7 3320.0,314.1 3325.0,187.3 3330.0,118.6 3335.0,23.3 3340.0,346.9 3345.0,114.4 3350.0,296.8 3355.0,169.4 3360.0,323.4 3365.0,133.1 3370.0,65.4 3375.0,238.1 3380.0,164.7 3385.0,191.7 3390.0,209.4 3395.0,40.2 3400.0,323.4 3405.0,337.3 3410.0,336.9 3415.0,199.1 3420.0,74.9 3425.0,87.1 3430.0,250.5 3435.0,185.6 3440.0,60.1 3445.0,331.9 3450.0,75.5 3455.0,202.5 3460.0,173.6 3465.0,283.4 3470.0,221.5 3475.0,81.9 3480.0,168.0 3485.0,171.5 3490.0,18.0 3495.0,254.7 3500.0,276.7 3505.0,269.4 3510.0,34.2 3515.0,333.0 3520.0,43.4 3525.0,229.3 3530.0,150.6 3535.0,350.8 3540.0,290.3 3545.0,94.3 3550.0,326.5 3555.0,347.9 3560.0,298.9 3565.0,170.2 3570.0,344.0 3575.0,204.6 3580.0,238.7 3585.0,187.4 3590.0,369.3 3595.0,364.0 3600.0,277.1 3605.0,37.1 3610.0,354.7 3615.0,339.3 3620.0,224.5 3625.0,293.7 3630.0,281.8 3635.0,164.6 3640.0,362.8 3645.0,67.5 3650.0,49.0 3655.0,151.3 3660.0,25.4 3665.0,114.2 3670.0,333.9 3675.0,225.9 3680.0,48.6 3685.0,298.6 3690.0,138.4 3695.0,225.2 3700.0,339.9 3705.0,349.3 3710.0,267.3 3715.0,115.7 3720.0,320.2 3725.0,13.1 3730.0,366.7 3735.0,337.0 3740.0,166.2 3745.0,212.7 3750.0,132.9 3755.0,230.3 3760.0,37.9 3765.0,314.6 3770.0,301.5 3775.0,291.7 3780.0,85.7 3785.0,21.0 3790.0,30.0 3795.0,215.4 3800.0,18.4 3805.0,317.3 3810.0,85.0 3815.0,122.5 3820.0,226.2 3825.0,182.7 3830.0,333.0 3835.0,236.1 3840.0,84.7 3845.0,278.1 3850.0,156.0 3855.0,197.5 3860.0,195.9 3865.0,122.4 3870.0,154.4 3875.0,112.8 3880.0,265.0 3885.0,235.7 3890.0,84.3 3895.0,15.4 3900.0,130.8 3905.0,108.7 3910.0,258.0 3915.0,35.9 3920.0,53.8 3925.0,142.9 3930.0,301.2 3935.0,192.8 3940.0,81.9 3945.0,234.2 3950.0,113.1 3955.0,54.7 3960.0,95.7 3965.0,360.3 3970.0,316.6 3975.0,300.3 3980.0,297.8 3985.0,327.5 3990.0,187.4 3995.0,231.3 4000.0,299.9 4005.0,328.0 4010.0,354.7 4015.0,176.4 4020.0,15.2 4025.0,356.7 4030.0,296.2 4035.0,282.6 4040.0,250.1 4045.0,180.5 4050.0,45.8 4055.0,67.4 4060.0,172.2 4065.0,289.6 4070.0,49.2 4075.0,79.6 4080.0,81.3 4085.0,116.8 4090.0,336.7 4095.0,209.3 4100.0,57.1 4105.0,92.6 4110.0,287.9 4115.0,294.8 4120.0,143.6 4125.0,109.6 4130.0,341.1 4135.0,241.6 4140.0,82.8 4145.0,65.0 4150.0,145.3 4155.0,131.6 4160.0,26.1 4165.0,230.3 4170.0,167.6 4175.0,78.4 4180.0,31.7 4185.0,71.9 4190.0,144.4 4195.0,274.1 4200.0,191.9 4205.0,95.5 4210.0,239.3 4215.0,176.7 4220.0,251.3 4225.0,358.7 4230.0,79.3 4235.0,96.7 4240.0,22.0 4245.0,353.6 4250.0,308.3 4255.0,142.7 4260.0,249.5 4265.0,304.6 4270.0,152.9 4275.0,332.4 4280.0,109.2 4285.0,233.0 4290.0,143.2 4295.0,120.1 4300.0,233.3 4305.0,285.3 4310.0,311.0 4315.0,212.6 4320.0,265.2 4325.0,301.3 4330.0,44.7 4335.0,350.4 4340.0,38.2 4345.0,201.3 4350.0,15.8 4355.0,242.9 4360.0,247.3 4365.0,295.3 4370.0,39.6 4375.0,284.7 4380.0,316.9 4385.0,209.2 4390.0,303.9 4395.0,339.7 4400.0,368.2 4405.0,269.6 4410.0,239.9 4415.0,365.7 4420.0,259.5 4425.0,328.1 4430.0,121.0 4435.0,61.6 4440.0,107.9 4445.0,337.4 4450.0,33.6 4455.0,51.4 4460.0,225.3 4465.0,214.0 4470.0,18.1 4475.0,120.0 4480.0,184.1 4485.0,76.8 4490.0,82.5 4495.0,128.4 4500.0,248.5 4505.0,78.1 4510.0,14.3 4515.0,133.8 4520.0,300.7 4525.0,239.3 4530.0,198.0 4535.0,176.7 4540.0,212.3 4545.0,99.7 4550.0,176.6 4555.0,225.0 4560.0,327.3 4565.0,161.0 4570.0,65.7 4575.0,301.7 4580.0,369.7 4585.0,365.1 4590.0,126.0 4595.0,136.0 4600.0,237.4 4605.0,194.2 4610.0,124.2 4615.0,28.3 4620.0,214.9 4625.0,51.6 4630.0,281.4 4635.0,251.0 4640.0,88.5 4645.0,112.6 4650.0,330.0 4655.0,128.0 4660.0,76.4 4665.0,140.6 4670.0,190.9 4675.0,117.9 4680.0,192.3 4685.0,115.6 4690.0,319.0 4695.0,151.8 4700.0,106.7 4705.0,354.0 4710.0,200.8 4715.0,175.7 4720.0,294.9 4725.0,168.1 4730.0,340.4 4735.0,20.6 4740.0,16.8 4745.0,201.1 4750.0,266.7 4755.0,95.8 4760.0,45.1 4765.0,55.3 4770.0,44.3 4775.0,48.5 4780.0,321.2 4785.0,34.4 4790.0,310.2 4795.0,361.4 4800.0,57.3 4805.0,193.6 4810.0,122.8 4815.0,46.4 4820.0,237.4 4825.0,176.3 4830.0,126.8 4835.0,289.7 4840.0,364.0 4845.0,69.9 4850.0,167.3 4855.0,117.5 4860.0,122.2 4865.0,79.9 4870.0,216.6 4875.0,265.8 4880.0,81.9 4885.0,278.5 4890.0,278.0 4895.0,17.1 4900.0,17.7 4905.0,319.4 4910.0,154.1 4915.0,236.6 4920.0,182.7 4925.0,339.4 4930.0,10.1 4935.0,78.4 4940.0,236.7 4945.0,134.7 4950.0,126.2 4955.0,347.7 4960.0,121.8 4965.0,215.0 4970.0,258.8 4975.0,221.8 4980.0,134.8 4985.0,145.8 4990.0,72.7 4995.0,27.5 5000.0,321.2 5005.0,48.2 5010.0,155.8 5015.0,198.4 5020.0,201.4 5025.0,76.5 5030.0,275.8 5035.0,239.3 5040.0,358.4 5045.0,151.3 5050.0,255.7 5055.0,135.4 5060.0,233.2 5065.0,317.8 5070.0,154.3 5075.0,95.7 5080.0,50.7 5085.0,151.7 5090.0,49.0 5095.0,74.4 5100.0,240.0 5105.0,192.0 5110.0,181.6 5115.0,102.4 5120.0,117.8 5125.0,256.4 5130.0,325.1 5135.0,64.3 5140.0,40.2 5145.0,69.6 5150.0,169.8 5155.0,149.7 5160.0,292.6 5165.0,172.1 5170.0,318.9 5175.0,324.0 5180.0,179.4 5185.0,334.0 5190.0,72.8 5195.0,190.7 5200.0,290.0 5205.0,206.7 5210.0,257.5 5215.0,29.7 5220.0,279.5 5225.0,335.2 5230.0,312.9 5235.0,87.2 5240.0,281.5 5245.0,293.4 5250.0,53.4 5255.0,259.4 5260.0,300.6 5265.0,283.7 5270.0,122.0 5275.0,104.3 5280.0,224.0 5285.0,293.5 5290.0,257.7 5295.0,368.1 5300.0,268.4 5305.0,185.3 5310.0,172.9 5315.0,157.4 5320.0,329.8 5325.0,251.0 5330.0,201.5 5335.0,187.8 5340.0,82.8 5345.0,314.4 5350.0,231.4 5355.0,298.7 5360.0,288.1 5365.0,12.7 5370.0,135.9 5375.0,71.5 5380.0,186.0 5385.0,342.1 5390.0,167.8 5395.0,79.0 5400.0,147.9 5405.0,277.6 5410.0,361.3 5415.0,51.9 5420.0,233.8 5425.0,112.2 5430.0,193.7 5435.0,340.2 5440.0,323.3 5445.0,65.4 5450.0,112.4 5455.0,172.9 5460.0,219.2 5465.0,46.1 5470.0,252.6 5475.0,244.5 5480.0,281.1 5485.0,240.9 5490.0,304.7 5495.0,120.3 5500.0,15.1 5505.0,194.5 5510.0,338.7 5515.0,54.5 5520.0,217.3 5525.0,339.4 5530.0,316.2 5535.0,67.7 5540.0,80.4 5545.0,275.8 5550.0,153.4 5555.0,326.1 5560.0,79.2 5565.0,364.6 5570.0,170.2 5575.0,147.2 5580.0,165.2 5585.0,262.1 5590.0,159.9 5595.0,277.4 5600.0,281.4 5605.0,11.3 5610.0,305.3 5615.0,64.3 5620.0,50.8 5625.0,14.9 5630.0,300.1 5635.0,237.4 5640.0,236.9 5645.0,315.9 5650.0,236.3 5655.0,322.7 5660.0,107.4 5665.0,223.8 5670.0,242.7 5675.0,157.7 5680.0,309.5 5685.0,355.5 5690.0,329.3 5695.0,285.6 5700.0,234.6 5705.0,140.4 5710.0,219.2 5715.0,182.0 5720.0,317.7 5725.0,300.6 5730.0,320.8 5735.0,273.5 5740.0,139.8 5745.0,168.0 5750.0,340.5 5755.0,203.2 5760.0,184.0 5765.0,183.8 5770.0,125.5 5775.0,82.7 5780.0,78.5 5785.0,299.6 5790.0,130.2 5795.0,51.5 5800.0,66.1 5805.0,90.2 5810.0,354.9 5815.0,238.4 5820.0,145.4 5825.0,33.2 5830.0,215.0 5835.0,318.9 5840.0,232.7 5845.0,131.9 5850.0,65.2 5855.0,233.0 5860.0,207.4 5865.0,47.0 5870.0,354.5 5875.0,125.5 5880.0,45.3 5885.0,169.4 5890.0,237.8 5895.0,73.3 5900.0,239.0 5905.0,152.4 5910.0,47.3 5915.0,114.2 5920.0,100.2 5925.0,239.8 5930.0,39.4 5935.0,324.5 5940.0,365.8 5945.0,119.8 5950.0,229.5 5955.0,334.0 5960.0,240.3 5965.0,310.6 5970.0,185.1 5975.0,127.7 5980.0,25.8 5985.0,71.2 5990.0,308.3 5995.0,201.5 6000.0,119.1 6005.0,40.9 6010.0,362.2 6015.0,125.7 6020.0,200.9 6025.0,320.1 6030.0,251.8 6035.0,58.7 6040.0,29.6 6045.0,333.3 6050.0,332.8 6055.0,364.7 6060.0,311.7 6065.0,156.8 6070.0,58.9 6075.0,344.4 6080.0,15.2 6085.0,268.4 6090.0,189.0 6095.0,18.4 6100.0,262.0 6105.0,267.9 6110.0,267.6 6115.0,266.2 6120.0,209.7 6125.0,222.9 6130.0,313.7 6135.0,366.9 6140.0,240.0 6145.0,315.0 6150.0,142.9 6155.0,87.3 6160.0,219.9 6165.0,157.4 6170.0,234.4 6175.0,163.7 6180.0,302.1 6185.0,349.2 6190.0,267.5 6195.0,168.6 6200.0,235.8 6205.0,149.5 6210.0,49.3 6215.0,180.9 6220.0,344.2 6225.0,263.3 6230.0,196.8 6235.0,66.0 6240.0,61.4 6245.0,126.6 6250.0,321.2 6255.0,60.9 6260.0,282.4 6265.0,177.0 6270.0,53.0 6275.0,353.9 6280.0,272.9 6285.0,195.0 6290.0,308.1 6295.0,368.0 6300.0,43.6 6305.0,362.6 6310.0,51.3 6315.0,80.2 6320.0,94.8 6325.0,59.7 6330.0,202.7 6335.0,98.7 6340.0,364.1 6345.0,159.3 6350.0,66.8 6355.0,262.3 6360.0,157.2 6365.0,231.5 6370.0,316.4 6375.0,330.8 6380.0,120.7 6385.0,321.1 6390.0,181.7 6395.0,91.3 6400.0,244.3 6405.0,270.6 6410.0,230.5 6415.0,148.7 6420.0,235.7 6425.0,86.9 6430.0,219.9 6435.0,150.6 6440.0,109.5 6445.0,116.6 6450.0,339.3 6455.0,55.6 6460.0,225.3 6465.0,252.6 6470.0,367.2 6475.0,194.9 6480.0,351.7 6485.0,303.3 6490.0,312.3 6495.0,254.5 6500.0,269.8 6505.0,147.3 6510.0,253.9 6515.0,246.2 6520.0,158.1 6525.0,45.3 6530.0,82.5 6535.0,286.4 6540.0,15.9 6545.0,347.2 6550.0,307.7 6555.0,288.7 6560.0,278.3 6565.0,138.5 6570.0,198.9 6575.0,269.3 6580.0,199.8 6585.0,158.1 6590.0,71.2 6595.0,285.8 6600.0,190.7 6605.0,216.1 6610.0,360.6 6615.0,61.6 6620.0,36.7 6625.0,214.9 6630.0,33.3 6635.0,280.6 6640.0,74.4 6645.0,10.7 6650.0,237.2 6655.0,108.8 6660.0,303.4 6665.0,71.5 6670.0,148.9 6675.0,218.0 6680.0,158.4 6685.0,265.0 6690.0,272.0 6695.0,272.6 6700.0,29.5 6705.0,349.2 6710.0,44.6 6715.0,121.9 6720.0,127.4 6725.0,39.7 6730.0,101.6 6735.0,69.1 6740.0,341.5 6745.0,20.0 6750.0,39.9 6755.0,113.1 6760.0,87.7 6765.0,126.7 6770.0,130.6 6775.0,297.5 6780.0,52.6 6785.0,261.0 6790.0,172.8 6795.0,35.8 6800.0,127.9 6805.0,106.4 6810.0,119.7 6815.0,77.0 6820.0,111.3 6825.0,297.5 6830.0,167.6 6835.0,70.8 6840.0,86.0 6845.0,350.1 6850.0,59.6 6855.0,13.2 6860.0,75.6 " />
<text x="60.0" y="405" font-size="12" fill="#444" transform="rotate(55 60.0,405)">05:39:27.804</text>
<text x="140.0" y="405" font-size="12" fill="#444" transform="rotate(55 140.0,405)">05:39:29.574</text>
<text x="220.0" y="405" font-size="12" fill="#444" transform="rotate(55 220.0,405)">05:39:31.358</text>
<text x="300.0" y="405" font-size="12" fill="#444" transform="rotate(55 300.0,405)">05:39:33.120</text>
<text x="380.0" y="405" font-size="12" fill="#444" transform="rotate(55 380.0,405)">05:39:34.899</text>
<text x="460.0" y="405" font-size="12" fill="#444" transform="rotate(55 460.0,405)">05:39:36.655</text>
<text x="540.0" y="405" font-size="12" fill="#444" transform="rotate(55 540.0,405)">05:39:38.425</text>
<text x="620.0" y="405" font-size="12" fill="#444" transform="rotate(55 620.0,405)">05:39:40.196</text>
<text x="700.0" y="405" font-size="12" fill="#444" transform="rotate(55 700.0,405)">05:39:41.970</text>
<text x="780.0" y="405" font-size="12" fill="#444" transform="rotate(55 780.0,405)">05:39:43.773</text>
<text x="860.0" y="405" font-size="12" fill="#444" transform="rotate(55 860.0,405)">05:39:45.561</text>
<text x="940.0" y="405" font-size="12" fill="#444" transform="rotate(55 940.0,405)">05:39:47.341</text>
<text x="1020.0" y="405" font-size="12" fill="#444" transform="rotate(55 1020.0,405)">05:39:49.134</text>
<text x="1100.0" y="405" font-size="12" fill="#444" transform="rotate(55 1100.0,405)">05:39:50.922</text>
<text x="1180.0" y="405" font-size="12" fill="#444" transform="rotate(55 1180.0,405)">05:39:52.691</text>
<text x="1260.0" y="405" font-size="12" fill="#444" transform="rotate(55 1260.0,405)">05:39:54.476</text>
<text x="1340.0" y="405" font-size="12" fill="#444" transform="rotate(55 1340.0,405)">05:39:56.295</text>
<text x="1420.0" y="405" font-size="12" fill="#444" transform="rotate(55 1420.0,405)">05:39:58.084</text>
<text x="1500.0" y="405" font-size="12" fill="#444" transform="rotate(55 1500.0,405)">05:39:59.895</text>
<text x="1580.0" y="405" font-size="12" fill="#444" transform="rotate(55 1580.0,405)">05:40:01.731</text>
<text x="1660.0" y="405" font-size="12" fill="#444" transform="rotate(55 1660.0,405)">05:40:03.546</text>
<text x="1740.0" y="405" font-size="12" fill="#444" transform="rotate(55 1740.0,405)">05:40:05.368</text>
<text x="1820.0" y="405" font-size="12" fill="#444" transform="rotate(55 1820.0,405)">05:40:07.158</text>
<text x="1900.0" y="405" font-size="12" fill="#444" transform="rotate(55 1900.0,405)">05:40:08.950</text>
<text x="1980.0" y="405" font-size="12" fill="#444" transform="rotate(55 1980.0,405)">05:40:10.772</text>
<text x="2060.0" y="405" font-size="12" fill="#444" transform="rotate(55 2060.0,405)">05:40:12.565</text>
<text x="2140.0" y="405" font-size="12" fill="#444" transform="rotate(55 2140.0,405)">05:40:14.362</text>
<text x="2220.0" y="405" font-size="12" fill="#444" transform="rotate(55 2220.0,405)">05:40:16.173</text>
<text x="2300.0" y="405" font-size="12" fill="#444" transform="rotate(55 2300.0,405)">05:40:17.980</text>
<text x="2380.0" y="405" font-size="12" fill="#444" transform="rotate(55 2380.0,405)">05:40:19.798</text>
<text x="2460.0" y="405" font-size="12" fill="#444" transform="rotate(55 2460.0,405)">05:40:21.591</text>
<text x="2540.0" y="405" font-size="12" fill="#444" transform="rotate(55 2540.0,405)">05:40:23.401</text>
<text x="2620.0" y="405" font-size="12" fill="#444" transform="rotate(55 2620.0,405)">05:40:25.241</text>
<text x="2700.0" y="405" font-size="12" fill="#444" transform="rotate(55 2700.0,405)">05:40:27.049</text>
<text x="2780.0" y="405" font-size="12" fill="#444" transform="rotate(55 2780.0,405)">05:40:28.857</text>
<text x="2860.0" y="405" font-size="12" fill="#444" transform="rotate(55 2860.0,405)">05:40:30.682</text>
<text x="2940.0" y="405" font-size="12" fill="#444" transform="rotate(55 2940.0,405)">05:40:32.487</text>
<text x="3020.0" y="405" font-size="12" fill="#444" transform="rotate(55 3020.0,405)">05:40:34.298</text>
<text x="3100.0" y="405" font-size="12" fill="#444" transform="rotate(55 3100.0,405)">05:40:36.135</text>
<text x="3180.0" y="405" font-size="12" fill="#444" transform="rotate(55 3180.0,405)">05:40:37.953</text>
<text x="3260.0" y="405" font-size="12" fill="#444" transform="rotate(55 3260.0,405)">05:40:39.783</text>
<text x="3340.0" y="405" font-size="12" fill="#444" transform="rotate(55 3340.0,405)">05:40:41.609</text>
<text x="3420.0" y="405" font-size="12" fill="#444" transform="rotate(55 3420.0,405)">05:40:43.391</text>
<text x="3500.0" y="405" font-size="12" fill="#444" transform="rotate(55 3500.0,405)">05:40:45.173</text>
<text x="3580.0" y="405" font-size="12" fill="#444" transform="rotate(55 3580.0,405)">05:40:47.010</text>
<text x="3660.0" y="405" font-size="12" fill="#444" transform="rotate(55 3660.0,405)">05:40:48.819</text>
<text x="3740.0" y="405" font-size="12" fill="#444" transform="rotate(55 3740.0,405)">05:40:50.627</text>
<text x="3820.0" y="405" font-size="12" fill="#444" transform="rotate(55 3820.0,405)">05:40:52.435</text>
<text x="3900.0" y="405" font-size="12" fill="#444" transform="rotate(55 3900.0,405)">05:40:54.234</text>
<text x="3980.0" y="405" font-size="12" fill="#444" transform="rotate(55 3980.0,405)">05:40:56.018</text>
<text x="4060.0" y="405" font-size="12" fill="#444" transform="rotate(55 4060.0,405)">05:40:57.808</text>
<text x="4140.0" y="405" font-size="12" fill="#444" transform="rotate(55 4140.0,405)">05:40:59.594</text>
<text x="4220.0" y="405" font-size="12" fill="#444" transform="rotate(55 4220.0,405)">05:41:01.403</text>
<text x="4300.0" y="405" font-size="12" fill="#444" transform="rotate(55 4300.0,405)">05:41:03.199</text>
<text x="4380.0" y="405" font-size="12" fill="#444" transform="rotate(55 4380.0,405)">05:41:04.982</text>
<text x="4460.0" y="405" font-size="12" fill="#444" transform="rotate(55 4460.0,405)">05:41:06.786</text>
<text x="4540.0" y="405" font-size="12" fill="#444" transform="rotate(55 4540.0,405)">05:41:08.549</text>
<text x="4620.0" y="405" font-size="12" fill="#444" transform="rotate(55 4620.0,405)">05:41:10.331</text>
<text x="4700.0" y="405" font-size="12" fill="#444" transform="rotate(55 4700.0,405)">05:41:12.135</text>
<text x="4780.0" y="405" font-size="12" fill="#444" transform="rotate(55 4780.0,405)">05:41:13.910</text>
<text x="4860.0" y="405" font-size="12" fill="#444" transform="rotate(55 4860.0,405)">05:41:15.692</text>
<text x="4940.0" y="405" font-size="12" fill="#444" transform="rotate(55 4940.0,405)">05:41:17.484</text>
<text x="5020.0" y="405" font-size="12" fill="#444" transform="rotate(55 5020.0,405)">05:41:19.241</text>
<text x="5100.0" y="405" font-size="12" fill="#444" transform="rotate(55 5100.0,405)">05:41:21.058</text>
<text x="5180.0" y="405" font-size="12" fill="#444" transform="rotate(55 5180.0,405)">05:41:22.838</text>
<text x="5260.0" y="405" font-size="12" fill="#444" transform="rotate(55 5260.0,405)">05:41:24.591</text>
<text x="5340.0" y="405" font-size="12" fill="#444" transform="rotate(55 5340.0,405)">05:41:26.377</text>
<text x="5420.0" y="405" font-size="12" fill="#444" transform="rotate(55 5420.0,405)">05:41:28.151</text>
<text x="5500.0" y="405" font-size="12" fill="#444" transform="rotate(55 5500.0,405)">05:41:29.936</text>
<text x="5580.0" y="405" font-size="12" fill="#444" transform="rotate(55 5580.0,405)">05:41:31.722</text>
<text x="5660.0" y="405" font-size="12" fill="#444" transform="rotate(55 5660.0,405)">05:41:33.514</text>
<text x="5740.0" y="405" font-size="12" fill="#444" transform="rotate(55 5740.0,405)">05:41:35.356</text>
<text x="5820.0" y="405" font-size="12" fill="#444" transform="rotate(55 5820.0,405)">05:41:37.156</text>
<text x="5900.0" y="405" font-size="12" fill="#444" transform="rotate(55 5900.0,405)">05:41:38.942</text>
<text x="5980.0" y="405" font-size="12" fill="#444" transform="rotate(55 5980.0,405)">05:41:40.736</text>
<text x="6060.0" y="405" font-size="12" fill="#444" transform="rotate(55 6060.0,405)">05:41:42.541</text>
<text x="6140.0" y="405" font-size="12" fill="#444" transform="rotate(55 6140.0,405)">05:41:44.342</text>
<text x="6220.0" y="405" font-size="12" fill="#444" transform="rotate(55 6220.0,405)">05:41:46.121</text>
<text x="6300.0" y="405" font-size="12" fill="#444" transform="rotate(55 6300.0,405)">05:41:47.890</text>
<text x="6380.0" y="405" font-size="12" fill="#444" transform="rotate(55 6380.0,405)">05:41:49.681</text>
<text x="6460.0" y="405" font-size="12" fill="#444" transform="rotate(55 6460.0,405)">05:41:51.486</text>
<text x="6540.0" y="405" font-size="12" fill="#444" transform="rotate(55 6540.0,405)">05:41:53.247</text>
<text x="6620.0" y="405" font-size="12" fill="#444" transform="rotate(55 6620.0,405)">05:41:55.043</text>
<text x="6700.0" y="405" font-size="12" fill="#444" transform="rotate(55 6700.0,405)">05:41:56.842</text>
<text x="6780.0" y="405" font-size="12" fill="#444" transform="rotate(55 6780.0,405)">05:41:58.613</text>
<text x="6860.0" y="405" font-size="12" fill="#444" transform="rotate(55 6860.0,405)">05:42:00.351</text>
</svg>
