<svg width="800" height="300" xmlns="http://www.w3.org/2000/svg">
<rect x="0" y="0" width="800" height="300" fill="white" stroke="lightgray" />
<polyline fill="none" stroke="blue" stroke-width="2" points="10.0,230.9 14.9,117.1 19.8,277.8 24.6,96.2 29.5,211.6 34.4,117.5 39.2,213.9 44.1,53.0 49.0,174.8 53.9,131.8 58.8,153.9 63.6,127.5 68.5,209.1 73.4,29.1 78.2,88.6 83.1,40.9 88.0,172.9 92.9,273.2 97.8,70.9 102.6,98.4 107.5,47.5 112.4,151.0 117.3,212.7 122.1,54.5 127.0,143.4 131.9,108.6 136.8,252.6 141.6,100.0 146.5,97.7 151.4,207.5 156.2,101.3 161.1,232.5 166.0,178.1 170.9,135.5 175.8,82.3 180.6,45.0 185.5,98.6 190.4,153.2 195.2,77.5 200.1,140.7 205.0,251.1 209.9,249.7 214.8,177.2 219.6,93.1 224.5,39.7 229.4,266.2 234.2,132.3 239.1,264.7 244.0,263.6 248.9,271.4 253.8,23.9 258.6,257.4 263.5,115.6 268.4,35.1 273.2,252.5 278.1,208.4 283.0,217.0 287.9,281.6 292.8,269.2 297.6,269.5 302.5,215.7 307.4,141.1 312.2,52.8 317.1,289.6 322.0,90.5 326.9,198.2 331.8,125.2 336.6,257.5 341.5,38.9 346.4,58.8 351.2,10.0 356.1,234.0 361.0,40.2 365.9,70.8 370.8,104.8 375.6,32.4 380.5,40.5 385.4,152.6 390.2,281.0 395.1,257.3 400.0,244.5 404.9,249.9 409.7,84.5 414.6,217.9 419.5,253.7 424.4,37.2 429.2,146.3 434.1,64.6 439.0,26.4 443.9,230.2 448.8,46.1 453.6,256.0 458.5,237.9 463.4,89.5 468.2,39.7 473.1,160.6 478.0,267.0 482.9,132.7 487.8,173.4 492.6,37.0 497.5,161.3 502.4,160.2 507.2,275.1 512.1,236.0 517.0,14.4 521.9,38.4 526.8,105.9 531.6,170.4 536.5,223.0 541.4,186.5 546.2,72.3 551.1,194.0 556.0,81.4 560.9,153.1 565.8,239.8 570.6,101.5 575.5,169.4 580.4,11.3 585.2,81.3 590.1,56.6 595.0,119.5 599.9,122.3 604.8,64.3 609.6,20.5 614.5,246.4 619.4,237.6 624.2,133.8 629.1,117.9 634.0,240.4 638.9,127.6 643.8,177.8 648.6,124.3 653.5,99.9 658.4,25.0 663.2,113.0 668.1,124.3 673.0,182.8 677.9,45.2 682.8,74.3 687.6,290.0 692.5,240.0 697.4,63.8 702.2,259.0 707.1,55.8 712.0,29.1 716.9,208.9 721.8,127.2 726.6,76.6 731.5,88.1 736.4,232.4 741.2,235.6 746.1,135.7 751.0,110.0 755.9,107.8 760.8,46.3 765.6,48.2 770.5,259.2 775.4,100.1 780.2,230.9 785.1,268.1 790.0,36.0 " />
</svg>
