<svg width="6880" height="480" xmlns="http://www.w3.org/2000/svg">
<rect x="0" y="0" width="6880" height="480" fill="white" />
<line x1="60" y1="370.0" x2="6860" y2="370.0" stroke="#e0e0e0" />
<text x="5" y="374.0" font-size="12" fill="#333">10.07</text>
<line x1="60" y1="310.0" x2="6860" y2="310.0" stroke="#e0e0e0" />
<text x="5" y="314.0" font-size="12" fill="#333">33.38</text>
<line x1="60" y1="250.0" x2="6860" y2="250.0" stroke="#e0e0e0" />
<text x="5" y="254.0" font-size="12" fill="#333">56.70</text>
<line x1="60" y1="190.0" x2="6860" y2="190.0" stroke="#e0e0e0" />
<text x="5" y="194.0" font-size="12" fill="#333">80.01</text>
<line x1="60" y1="130.0" x2="6860" y2="130.0" stroke="#e0e0e0" />
<text x="5" y="134.0" font-size="12" fill="#333">103.32</text>
<line x1="60" y1="70.0" x2="6860" y2="70.0" stroke="#e0e0e0" />
<text x="5" y="74.0" font-size="12" fill="#333">126.63</text>
<line x1="60" y1="10.0" x2="6860" y2="10.0" stroke="#e0e0e0" />
<text x="5" y="14.0" font-size="12" fill="#333">149.94</text>
<polyline fill="none" stroke="blue" stroke-width="2" points="60.0,225.7 65.0,145.9 70.0,328.7 75.0,272.8 80.0,325.6 85.0,99.9 90.0,115.4 95.0,167.0 100.0,251.8 105.0,115.3 110.0,350.5 115.0,160.6 120.0,197.6 125.0,97.0 130.0,262.5 135.0,345.1 140.0,19.3 145.0,51.3 150.0,76.7 155.0,181.7 160.0,83.3 165.0,72.1 170.0,112.9 175.0,345.5 180.0,112.5 185.0,193.5 190.0,19.9 195.0,131.3 200.0,241.9 205.0,275.5 210.0,167.7 215.0,38.7 220.0,355.3 225.0,160.2 230.0,287.0 235.0,295.3 240.0,319.2 245.0,255.4 250.0,260.4 255.0,336.8 260.0,345.0 265.0,71.3 270.0,216.0 275.0,83.9 280.0,135.5 285.0,44.4 290.0,361.2 295.0,332.4 300.0,55.0 305.0,149.3 310.0,144.3 315.0,35.2 320.0,57.8 325.0,114.6 330.0,117.8 335.0,197.6 340.0,272.0 345.0,145.8 350.0,95.3 355.0,109.4 360.0,26.8 365.0,300.1 370.0,210.7 375.0,72.5 380.0,339.2 385.0,132.9 390.0,237.1 395.0,33.3 400.0,90.0 405.0,306.2 410.0,190.3 415.0,24.4 420.0,40.2 425.0,186.2 430.0,360.7 435.0,159.2 440.0,215.1 445.0,362.6 450.0,222.5 455.0,234.0 460.0,192.8 465.0,356.1 470.0,61.5 475.0,118.1 480.0,29.8 485.0,104.3 490.0,131.8 495.0,24.9 500.0,191.2 505.0,34.1 510.0,93.1 515.0,300.9 520.0,51.7 525.0,232.4 530.0,43.1 535.0,344.8 540.0,107.1 545.0,14.5 550.0,240.7 555.0,68.6 560.0,186.3 565.0,90.4 570.0,159.5 575.0,142.1 580.0,210.3 585.0,367.1 590.0,174.1 595.0,40.5 600.0,358.9 605.0,90.1 610.0,347.8 615.0,237.8 620.0,259.9 625.0,87.9 630.0,163.4 635.0,330.9 640.0,315.2 645.0,352.7 650.0,79.7 655.0,117.4 660.0,352.7 665.0,345.6 670.0,281.9 675.0,181.3 680.0,185.5 685.0,341.9 690.0,176.4 695.0,138.7 700.0,349.7 705.0,155.9 710.0,352.2 715.0,298.1 720.0,117.8 725.0,361.0 730.0,104.5 735.0,201.4 740.0,28.4 745.0,130.3 750.0,164.2 755.0,288.0 760.0,355.1 765.0,352.5 770.0,261.4 775.0,106.4 780.0,280.1 785.0,57.8 790.0,190.3 795.0,198.0 800.0,172.0 805.0,278.9 810.0,134.1 815.0,309.5 820.0,345.2 825.0,82.4 830.0,257.0 835.0,359.6 840.0,236.3 845.0,30.8 850.0,109.5 855.0,151.6 860.0,210.3 865.0,90.4 870.0,49.7 875.0,304.2 880.0,97.2 885.0,285.9 890.0,223.8 895.0,273.1 900.0,141.0 905.0,238.7 910.0,218.0 915.0,187.1 920.0,108.4 925.0,211.1 930.0,298.1 935.0,102.1 940.0,106.6 945.0,289.3 950.0,42.8 955.0,69.2 960.0,338.1 965.0,76.3 970.0,235.6 975.0,369.9 980.0,182.6 985.0,256.2 990.0,79.7 995.0,14.1 1000.0,33.7 1005.0,246.5 1010.0,181.2 1015.0,140.1 1020.0,339.8 1025.0,29.3 1030.0,271.6 1035.0,71.5 1040.0,110.9 1045.0,229.6 1050.0,199.4 1055.0,172.1 1060.0,208.9 1065.0,260.4 1070.0,141.8 1075.0,94.7 1080.0,167.1 1085.0,73.9 1090.0,365.5 1095.0,154.8 1100.0,106.3 1105.0,95.3 1110.0,274.7 1115.0,261.5 1120.0,113.4 1125.0,193.9 1130.0,88.2 1135.0,57.6 1140.0,132.0 1145.0,231.2 1150.0,148.9 1155.0,73.5 1160.0,207.9 1165.0,339.0 1170.0,198.1 1175.0,175.3 1180.0,58.4 1185.0,191.6 1190.0,58.6 1195.0,101.1 1200.0,366.5 1205.0,11.3 1210.0,61.7 1215.0,19.5 1220.0,58.2 1225.0,184.4 1230.0,288.4 1235.0,39.5 1240.0,206.7 1245.0,107.3 1250.0,251.0 1255.0,199.3 1260.0,291.0 1265.0,161.4 1270.0,181.0 1275.0,40.3 1280.0,206.8 1285.0,342.1 1290.0,141.4 1295.0,12.2 1300.0,216.7 1305.0,33.4 1310.0,168.1 1315.0,252.9 1320.0,363.0 1325.0,27.0 1330.0,35.3 1335.0,318.8 1340.0,50.9 1345.0,321.4 1350.0,281.2 1355.0,300.4 1360.0,76.2 1365.0,54.3 1370.0,318.6 1375.0,195.2 1380.0,80.1 1385.0,249.1 1390.0,313.7 1395.0,187.0 1400.0,192.7 1405.0,313.8 1410.0,25.3 1415.0,110.5 1420.0,335.9 1425.0,19.0 1430.0,357.2 1435.0,207.2 1440.0,187.7 1445.0,348.8 1450.0,235.7 1455.0,133.4 1460.0,15.5 1465.0,190.3 1470.0,240.5 1475.0,329.7 1480.0,150.7 1485.0,220.0 1490.0,144.1 1495.0,57.7 1500.0,99.7 1505.0,180.4 1510.0,139.1 1515.0,129.5 1520.0,256.1 1525.0,346.2 1530.0,323.6 1535.0,179.4 1540.0,113.1 1545.0,225.5 1550.0,118.3 1555.0,212.5 1560.0,238.6 1565.0,17.4 1570.0,218.8 1575.0,284.6 1580.0,356.8 1585.0,358.3 1590.0,111.4 1595.0,23.5 1600.0,157.5 1605.0,297.9 1610.0,170.2 1615.0,316.4 1620.0,196.7 1625.0,365.7 1630.0,238.4 1635.0,298.7 1640.0,10.7 1645.0,330.1 1650.0,354.7 1655.0,60.4 1660.0,298.7 1665.0,183.4 1670.0,164.2 1675.0,175.5 1680.0,164.6 1685.0,230.9 1690.0,344.5 1695.0,250.0 1700.0,129.9 1705.0,367.6 1710.0,345.3 1715.0,224.4 1720.0,273.2 1725.0,246.2 1730.0,360.4 1735.0,46.4 1740.0,273.6 1745.0,245.8 1750.0,293.5 1755.0,313.7 1760.0,271.2 1765.0,283.8 1770.0,275.5 1775.0,101.3 1780.0,283.6 1785.0,193.4 1790.0,192.8 1795.0,24.1 1800.0,271.9 1805.0,21.3 1810.0,54.9 1815.0,73.0 1820.0,300.9 1825.0,172.2 1830.0,36.8 1835.0,25.8 1840.0,32.2 1845.0,191.5 1850.0,342.3 1855.0,141.3 1860.0,271.4 1865.0,352.0 1870.0,141.3 1875.0,294.6 1880.0,259.3 1885.0,308.9 1890.0,352.3 1895.0,74.2 1900.0,40.8 1905.0,275.3 1910.0,47.6 1915.0,321.1 1920.0,132.8 1925.0,330.8 1930.0,222.2 1935.0,140.0 1940.0,266.5 1945.0,106.5 1950.0,193.1 1955.0,215.1 1960.0,163.4 1965.0,291.8 1970.0,356.7 1975.0,137.3 1980.0,312.6 1985.0,17.0 1990.0,57.8 1995.0,130.4 2000.0,248.6 2005.0,60.6 2010.0,90.2 2015.0,161.2 2020.0,65.6 2025.0,123.1 2030.0,185.6 2035.0,196.1 2040.0,151.2 2045.0,242.1 2050.0,332.3 2055.0,275.2 2060.0,140.2 2065.0,351.4 2070.0,134.3 2075.0,44.2 2080.0,323.6 2085.0,287.5 2090.0,324.8 2095.0,362.0 2100.0,165.1 2105.0,146.2 2110.0,311.4 2115.0,150.9 2120.0,64.4 2125.0,148.6 2130.0,93.2 2135.0,204.8 2140.0,267.3 2145.0,106.3 2150.0,82.8 2155.0,52.5 2160.0,94.4 2165.0,146.8 2170.0,66.0 2175.0,317.5 2180.0,124.0 2185.0,73.4 2190.0,263.8 2195.0,332.3 2200.0,361.9 2205.0,177.6 2210.0,296.3 2215.0,349.5 2220.0,311.5 2225.0,79.6 2230.0,149.3 2235.0,10.5 2240.0,249.4 2245.0,352.8 2250.0,282.9 2255.0,281.4 2260.0,18.5 2265.0,82.0 2270.0,96.3 2275.0,247.2 2280.0,22.5 2285.0,173.6 2290.0,228.3 2295.0,111.1 2300.0,42.3 2305.0,346.6 2310.0,236.4 2315.0,20.5 2320.0,75.4 2325.0,35.1 2330.0,258.5 2335.0,269.7 2340.0,107.4 2345.0,14.2 2350.0,27.2 2355.0,312.5 2360.0,363.6 2365.0,38.8 2370.0,107.8 2375.0,197.3 2380.0,263.7 2385.0,143.2 2390.0,313.5 2395.0,212.6 2400.0,182.2 2405.0,341.9 2410.0,306.6 2415.0,214.2 2420.0,11.2 2425.0,45.7 2430.0,239.8 2435.0,224.7 2440.0,154.2 2445.0,235.3 2450.0,220.6 2455.0,113.3 2460.0,156.4 2465.0,195.3 2470.0,219.0 2475.0,317.7 2480.0,97.4 2485.0,22.8 2490.0,357.9 2495.0,113.0 2500.0,367.3 2505.0,143.1 2510.0,90.7 2515.0,223.7 2520.0,224.7 2525.0,26.2 2530.0,222.5 2535.0,185.1 2540.0,34.6 2545.0,332.9 2550.0,163.2 2555.0,324.6 2560.0,351.4 2565.0,176.8 2570.0,115.5 2575.0,263.4 2580.0,309.2 2585.0,313.4 2590.0,272.0 2595.0,134.1 2600.0,197.2 2605.0,67.8 2610.0,87.9 2615.0,170.8 2620.0,190.8 2625.0,161.1 2630.0,41.7 2635.0,240.1 2640.0,183.3 2645.0,185.2 2650.0,173.7 2655.0,295.7 2660.0,101.1 2665.0,230.3 2670.0,281.0 2675.0,349.2 2680.0,39.7 2685.0,235.5 2690.0,55.9 2695.0,176.6 2700.0,148.6 2705.0,242.4 2710.0,80.7 2715.0,195.0 2720.0,33.2 2725.0,291.1 2730.0,11.9 2735.0,178.0 2740.0,113.5 2745.0,127.4 2750.0,184.0 2755.0,76.8 2760.0,13.1 2765.0,359.8 2770.0,189.3 2775.0,84.0 2780.0,134.0 2785.0,173.6 2790.0,314.6 2795.0,71.7 2800.0,323.2 2805.0,117.7 2810.0,23.9 2815.0,283.3 2820.0,103.4 2825.0,292.1 2830.0,209.2 2835.0,111.7 2840.0,214.7 2845.0,70.9 2850.0,171.8 2855.0,263.5 2860.0,329.3 2865.0,250.5 2870.0,173.8 2875.0,210.0 2880.0,298.9 2885.0,266.3 2890.0,88.5 2895.0,303.5 2900.0,37.4 2905.0,114.0 2910.0,287.0 2915.0,282.8 2920.0,296.9 2925.0,219.2 2930.0,162.8 2935.0,122.8 2940.0,344.3 2945.0,324.0 2950.0,351.6 2955.0,318.3 2960.0,151.3 2965.0,176.9 2970.0,205.5 2975.0,90.6 2980.0,287.7 2985.0,183.7 2990.0,295.6 2995.0,89.5 3000.0,306.3 3005.0,315.8 3010.0,215.7 3015.0,96.6 3020.0,245.6 3025.0,227.3 3030.0,155.0 3035.0,111.3 3040.0,207.1 3045.0,234.4 3050.0,143.3 3055.0,95.7 3060.0,316.5 3065.0,302.6 3070.0,55.3 3075.0,156.4 3080.0,129.0 3085.0,167.4 3090.0,261.1 3095.0,352.4 3100.0,369.1 3105.0,339.9 3110.0,102.5 3115.0,203.4 3120.0,345.3 3125.0,49.1 3130.0,64.6 3135.0,356.4 3140.0,132.6 3145.0,361.7 3150.0,236.2 3155.0,158.1 3160.0,283.8 3165.0,221.4 3170.0,96.0 3175.0,262.5 3180.0,334.0 3185.0,287.0 3190.0,291.7 3195.0,325.0 3200.0,130.7 3205.0,93.6 3210.0,170.0 3215.0,320.8 3220.0,345.0 3225.0,77.9 3230.0,265.3 3235.0,99.3 3240.0,365.6 3245.0,161.9 3250.0,277.3 3255.0,67.8 3260.0,17.3 3265.0,280.8 3270.0,16.6 3275.0,168.2 3280.0,38.5 3285.0,79.9 3290.0,157.0 3295.0,270.9 3300.0,211.3 3305.0,157.6 3310.0,312.4 3315.0,240.7 3320.0,268.2 3325.0,18.3 3330.0,312.9 3335.0,35.5 3340.0,96.6 3345.0,351.5 3350.0,234.4 3355.0,303.0 3360.0,216.4 3365.0,217.2 3370.0,137.6 3375.0,128.5 3380.0,329.9 3385.0,163.5 3390.0,81.6 3395.0,100.8 3400.0,302.3 3405.0,154.3 3410.0,365.0 3415.0,74.2 3420.0,115.0 3425.0,93.2 3430.0,105.4 3435.0,283.2 3440.0,328.3 3445.0,172.2 3450.0,236.0 3455.0,346.4 3460.0,361.3 3465.0,259.0 3470.0,233.7 3475.0,110.1 3480.0,57.2 3485.0,94.7 3490.0,322.6 3495.0,54.5 3500.0,355.9 3505.0,80.2 3510.0,106.3 3515.0,53.8 3520.0,142.2 3525.0,369.3 3530.0,305.6 3535.0,109.6 3540.0,148.3 3545.0,15.2 3550.0,23.6 3555.0,191.6 3560.0,244.4 3565.0,18.1 3570.0,113.1 3575.0,303.2 3580.0,53.0 3585.0,96.7 3590.0,242.5 3595.0,105.8 3600.0,185.6 3605.0,19.2 3610.0,74.5 3615.0,140.4 3620.0,152.5 3625.0,99.7 3630.0,347.9 3635.0,135.0 3640.0,348.4 3645.0,365.1 3650.0,102.4 3655.0,167.4 3660.0,321.0 3665.0,170.6 3670.0,257.9 3675.0,246.3 3680.0,131.0 3685.0,123.3 3690.0,20.8 3695.0,305.5 3700.0,222.5 3705.0,350.0 3710.0,251.4 3715.0,110.8 3720.0,337.5 3725.0,149.6 3730.0,17.7 3735.0,310.3 3740.0,300.1 3745.0,264.0 3750.0,10.9 3755.0,25.1 3760.0,145.4 3765.0,166.5 3770.0,131.0 3775.0,236.8 3780.0,333.6 3785.0,325.5 3790.0,176.9 3795.0,287.7 3800.0,112.1 3805.0,275.5 3810.0,301.7 3815.0,95.9 3820.0,51.5 3825.0,346.5 3830.0,64.2 3835.0,20.4 3840.0,14.2 3845.0,12.4 3850.0,186.3 3855.0,131.4 3860.0,98.9 3865.0,343.5 3870.0,39.1 3875.0,58.2 3880.0,86.4 3885.0,350.4 3890.0,362.2 3895.0,107.6 3900.0,360.1 3905.0,117.0 3910.0,331.9 3915.0,285.5 3920.0,261.5 3925.0,183.4 3930.0,123.9 3935.0,164.2 3940.0,366.0 3945.0,275.5 3950.0,134.6 3955.0,329.3 3960.0,61.9 3965.0,95.1 3970.0,218.2 3975.0,289.7 3980.0,70.8 3985.0,142.0 3990.0,338.1 3995.0,337.7 4000.0,67.7 4005.0,87.4 4010.0,271.1 4015.0,116.7 4020.0,359.1 4025.0,29.6 4030.0,357.7 4035.0,263.6 4040.0,207.2 4045.0,211.5 4050.0,175.9 4055.0,285.5 4060.0,346.2 4065.0,261.6 4070.0,280.9 4075.0,147.6 4080.0,54.8 4085.0,21.1 4090.0,296.7 4095.0,71.3 4100.0,69.2 4105.0,174.1 4110.0,199.8 4115.0,21.7 4120.0,366.8 4125.0,363.5 4130.0,17.1 4135.0,85.2 4140.0,152.3 4145.0,13.2 4150.0,16.1 4155.0,113.7 4160.0,246.4 4165.0,308.3 4170.0,126.3 4175.0,318.9 4180.0,136.4 4185.0,211.0 4190.0,78.9 4195.0,352.1 4200.0,248.0 4205.0,14.5 4210.0,312.4 4215.0,11.2 4220.0,355.9 4225.0,265.9 4230.0,302.9 4235.0,195.3 4240.0,231.3 4245.0,234.4 4250.0,184.7 4255.0,42.6 4260.0,108.2 4265.0,162.2 4270.0,195.5 4275.0,174.1 4280.0,225.6 4285.0,138.6 4290.0,14.3 4295.0,61.7 4300.0,299.8 4305.0,50.2 4310.0,88.3 4315.0,89.9 4320.0,52.9 4325.0,212.6 4330.0,348.5 4335.0,17.7 4340.0,144.1 4345.0,98.1 4350.0,36.1 4355.0,104.5 4360.0,365.6 4365.0,293.2 4370.0,56.5 4375.0,161.9 4380.0,346.3 4385.0,326.2 4390.0,294.5 4395.0,28.7 4400.0,215.1 4405.0,31.6 4410.0,289.5 4415.0,269.9 4420.0,340.6 4425.0,257.9 4430.0,70.4 4435.0,111.4 4440.0,287.4 4445.0,233.7 4450.0,79.6 4455.0,238.8 4460.0,145.0 4465.0,35.7 4470.0,175.0 4475.0,59.8 4480.0,146.3 4485.0,257.1 4490.0,168.5 4495.0,116.3 4500.0,70.4 4505.0,221.3 4510.0,303.7 4515.0,266.2 4520.0,323.5 4525.0,279.8 4530.0,25.9 4535.0,33.1 4540.0,354.0 4545.0,90.5 4550.0,301.5 4555.0,167.5 4560.0,220.4 4565.0,344.2 4570.0,296.6 4575.0,187.4 4580.0,350.1 4585.0,89.3 4590.0,146.6 4595.0,309.8 4600.0,62.3 4605.0,238.0 4610.0,322.3 4615.0,280.4 4620.0,106.5 4625.0,351.7 4630.0,192.1 4635.0,273.3 4640.0,221.5 4645.0,29.7 4650.0,164.0 4655.0,105.1 4660.0,79.2 4665.0,274.7 4670.0,101.4 4675.0,261.8 4680.0,359.7 4685.0,50.8 4690.0,42.4 4695.0,160.9 4700.0,222.1 4705.0,14.9 4710.0,101.1 4715.0,127.5 4720.0,55.2 4725.0,224.2 4730.0,60.4 4735.0,274.6 4740.0,94.2 4745.0,256.8 4750.0,206.1 4755.0,248.6 4760.0,276.0 4765.0,349.1 4770.0,137.8 4775.0,297.8 4780.0,13.6 4785.0,23.9 4790.0,341.7 4795.0,330.7 4800.0,174.0 4805.0,226.3 4810.0,362.1 4815.0,151.7 4820.0,187.6 4825.0,120.5 4830.0,51.6 4835.0,305.6 4840.0,367.3 4845.0,105.1 4850.0,359.2 4855.0,19.1 4860.0,97.1 4865.0,348.5 4870.0,50.4 4875.0,15.1 4880.0,263.5 4885.0,71.3 4890.0,22.7 4895.0,261.5 4900.0,203.4 4905.0,186.0 4910.0,261.3 4915.0,257.9 4920.0,188.1 4925.0,242.4 4930.0,159.1 4935.0,227.2 4940.0,216.1 4945.0,116.2 4950.0,211.9 4955.0,268.4 4960.0,148.7 4965.0,296.6 4970.0,272.4 4975.0,251.7 4980.0,126.9 4985.0,337.2 4990.0,222.6 4995.0,111.0 5000.0,216.2 5005.0,317.7 5010.0,341.0 5015.0,366.3 5020.0,111.9 5025.0,10.0 5030.0,53.0 5035.0,222.1 5040.0,225.1 5045.0,112.5 5050.0,157.9 5055.0,116.0 5060.0,48.2 5065.0,327.0 5070.0,243.3 5075.0,37.1 5080.0,303.8 5085.0,342.8 5090.0,331.7 5095.0,286.0 5100.0,15.9 5105.0,167.9 5110.0,33.7 5115.0,123.0 5120.0,247.3 5125.0,214.1 5130.0,20.1 5135.0,117.3 5140.0,80.7 5145.0,139.8 5150.0,341.9 5155.0,62.9 5160.0,327.7 5165.0,241.1 5170.0,358.0 5175.0,60.0 5180.0,192.3 5185.0,156.2 5190.0,71.4 5195.0,353.5 5200.0,177.9 5205.0,78.5 5210.0,330.2 5215.0,319.1 5220.0,221.1 5225.0,61.4 5230.0,128.2 5235.0,37.6 5240.0,329.1 5245.0,328.7 5250.0,35.1 5255.0,298.1 5260.0,107.4 5265.0,187.4 5270.0,247.4 5275.0,347.1 5280.0,202.7 5285.0,268.6 5290.0,213.9 5295.0,36.8 5300.0,33.1 5305.0,68.5 5310.0,79.9 5315.0,100.0 5320.0,245.9 5325.0,94.5 5330.0,304.9 5335.0,342.9 5340.0,17.8 5345.0,151.3 5350.0,31.2 5355.0,64.6 5360.0,253.5 5365.0,255.3 5370.0,123.3 5375.0,366.9 5380.0,278.8 5385.0,155.8 5390.0,123.6 5395.0,55.1 5400.0,210.7 5405.0,23.4 5410.0,233.9 5415.0,97.1 5420.0,328.0 5425.0,268.9 5430.0,49.7 5435.0,116.0 5440.0,87.9 5445.0,136.2 5450.0,79.2 5455.0,256.9 5460.0,209.3 5465.0,70.5 5470.0,50.1 5475.0,66.6 5480.0,15.0 5485.0,176.6 5490.0,98.4 5495.0,299.8 5500.0,336.6 5505.0,43.2 5510.0,278.3 5515.0,208.6 5520.0,149.9 5525.0,34.0 5530.0,245.6 5535.0,196.5 5540.0,307.3 5545.0,346.9 5550.0,215.7 5555.0,264.4 5560.0,355.3 5565.0,94.8 5570.0,327.7 5575.0,239.9 5580.0,184.7 5585.0,261.6 5590.0,133.6 5595.0,123.1 5600.0,370.0 5605.0,158.5 5610.0,256.3 5615.0,269.5 5620.0,305.4 5625.0,185.5 5630.0,108.5 5635.0,279.8 5640.0,100.4 5645.0,133.1 5650.0,67.3 5655.0,91.6 5660.0,128.1 5665.0,48.2 5670.0,219.5 5675.0,18.0 5680.0,29.1 5685.0,237.4 5690.0,85.1 5695.0,110.0 5700.0,64.5 5705.0,348.5 5710.0,209.7 5715.0,33.1 5720.0,305.8 5725.0,199.4 5730.0,193.7 5735.0,151.1 5740.0,205.5 5745.0,155.8 5750.0,190.1 5755.0,285.6 5760.0,73.7 5765.0,360.6 5770.0,133.5 5775.0,156.0 5780.0,315.4 5785.0,276.2 5790.0,336.0 5795.0,209.0 5800.0,104.1 5805.0,260.1 5810.0,355.6 5815.0,93.9 5820.0,139.5 5825.0,205.8 5830.0,345.5 5835.0,303.1 5840.0,128.8 5845.0,268.5 5850.0,364.5 5855.0,145.7 5860.0,154.6 5865.0,351.8 5870.0,223.0 5875.0,247.9 5880.0,144.5 5885.0,341.5 5890.0,192.1 5895.0,280.9 5900.0,163.7 5905.0,344.0 5910.0,97.6 5915.0,99.0 5920.0,276.2 5925.0,17.9 5930.0,54.5 5935.0,192.1 5940.0,133.3 5945.0,248.7 5950.0,51.0 5955.0,29.3 5960.0,110.8 5965.0,235.9 5970.0,317.0 5975.0,255.2 5980.0,346.4 5985.0,64.0 5990.0,90.5 5995.0,233.8 6000.0,228.3 6005.0,280.5 6010.0,66.5 6015.0,127.1 6020.0,80.1 6025.0,50.3 6030.0,185.5 6035.0,212.9 6040.0,232.6 6045.0,157.1 6050.0,100.1 6055.0,28.4 6060.0,319.7 6065.0,331.3 6070.0,312.4 6075.0,97.6 6080.0,217.4 6085.0,250.9 6090.0,55.3 6095.0,293.5 6100.0,330.3 6105.0,365.6 6110.0,212.0 6115.0,71.9 6120.0,302.8 6125.0,47.7 6130.0,136.7 6135.0,24.6 6140.0,262.6 6145.0,65.8 6150.0,278.4 6155.0,76.1 6160.0,10.3 6165.0,225.8 6170.0,32.1 6175.0,153.7 6180.0,147.7 6185.0,62.7 6190.0,154.8 6195.0,186.7 6200.0,72.4 6205.0,204.4 6210.0,115.1 6215.0,298.7 6220.0,177.6 6225.0,272.0 6230.0,253.4 6235.0,75.8 6240.0,195.0 6245.0,320.0 6250.0,175.7 6255.0,120.0 6260.0,290.7 6265.0,339.9 6270.0,113.2 6275.0,243.3 6280.0,176.1 6285.0,120.9 6290.0,144.0 6295.0,158.3 6300.0,202.1 6305.0,154.3 6310.0,49.4 6315.0,266.0 6320.0,352.4 6325.0,192.4 6330.0,270.9 6335.0,226.1 6340.0,330.7 6345.0,115.6 6350.0,228.6 6355.0,304.9 6360.0,363.6 6365.0,64.8 6370.0,219.0 6375.0,301.6 6380.0,191.2 6385.0,119.2 6390.0,261.7 6395.0,86.2 6400.0,157.2 6405.0,324.6 6410.0,245.9 6415.0,226.9 6420.0,174.8 6425.0,275.8 6430.0,352.2 6435.0,301.7 6440.0,17.5 6445.0,293.3 6450.0,269.3 6455.0,66.6 6460.0,175.4 6465.0,369.3 6470.0,58.8 6475.0,118.3 6480.0,196.9 6485.0,224.1 6490.0,69.7 6495.0,223.8 6500.0,114.7 6505.0,235.1 6510.0,316.8 6515.0,295.6 6520.0,224.5 6525.0,210.7 6530.0,178.6 6535.0,264.1 6540.0,324.0 6545.0,277.2 6550.0,182.5 6555.0,245.3 6560.0,115.6 6565.0,198.1 6570.0,362.4 6575.0,358.7 6580.0,64.4 6585.0,119.7 6590.0,157.7 6595.0,230.4 6600.0,153.9 6605.0,28.6 6610.0,44.8 6615.0,141.5 6620.0,224.9 6625.0,176.3 6630.0,172.5 6635.0,183.2 6640.0,227.5 6645.0,53.0 6650.0,271.0 6655.0,327.6 6660.0,150.6 6665.0,74.3 6670.0,19.2 6675.0,124.7 6680.0,149.1 6685.0,88.6 6690.0,310.2 6695.0,121.2 6700.0,300.9 6705.0,115.3 6710.0,38.5 6715.0,52.7 6720.0,14.1 6725.0,317.4 6730.0,330.8 6735.0,71.1 6740.0,27.2 6745.0,49.3 6750.0,213.2 6755.0,258.0 6760.0,23.1 6765.0,279.8 6770.0,215.4 6775.0,343.2 6780.0,44.1 6785.0,280.6 6790.0,180.6 6795.0,365.3 6800.0,228.4 6805.0,312.7 6810.0,279.6 6815.0,38.7 6820.0,166.7 6825.0,179.7 6830.0,136.5 6835.0,113.5 6840.0,14.6 6845.0,274.2 6850.0,29.4 6855.0,300.4 6860.0,190.9 " />
<text x="60.0" y="405" font-size="12" fill="#444" transform="rotate(55 60.0,405)">05:39:27.804</text>
<text x="140.0" y="405" font-size="12" fill="#444" transform="rotate(55 140.0,405)">05:39:29.574</text>
<text x="220.0" y="405" font-size="12" fill="#444" transform="rotate(55 220.0,405)">05:39:31.358</text>
<text x="300.0" y="405" font-size="12" fill="#444" transform="rotate(55 300.0,405)">05:39:33.120</text>
<text x="380.0" y="405" font-size="12" fill="#444" transform="rotate(55 380.0,405)">05:39:34.899</text>
<text x="460.0" y="405" font-size="12" fill="#444" transform="rotate(55 460.0,405)">05:39:36.655</text>
<text x="540.0" y="405" font-size="12" fill="#444" transform="rotate(55 540.0,405)">05:39:38.425</text>
<text x="620.0" y="405" font-size="12" fill="#444" transform="rotate(55 620.0,405)">05:39:40.196</text>
<text x="700.0" y="405" font-size="12" fill="#444" transform="rotate(55 700.0,405)">05:39:41.970</text>
<text x="780.0" y="405" font-size="12" fill="#444" transform="rotate(55 780.0,405)">05:39:43.773</text>
<text x="860.0" y="405" font-size="12" fill="#444" transform="rotate(55 860.0,405)">05:39:45.561</text>
<text x="940.0" y="405" font-size="12" fill="#444" transform="rotate(55 940.0,405)">05:39:47.341</text>
<text x="1020.0" y="405" font-size="12" fill="#444" transform="rotate(55 1020.0,405)">05:39:49.134</text>
<text x="1100.0" y="405" font-size="12" fill="#444" transform="rotate(55 1100.0,405)">05:39:50.922</text>
<text x="1180.0" y="405" font-size="12" fill="#444" transform="rotate(55 1180.0,405)">05:39:52.691</text>
<text x="1260.0" y="405" font-size="12" fill="#444" transform="rotate(55 1260.0,405)">05:39:54.476</text>
<text x="1340.0" y="405" font-size="12" fill="#444" transform="rotate(55 1340.0,405)">05:39:56.295</text>
<text x="1420.0" y="405" font-size="12" fill="#444" transform="rotate(55 1420.0,405)">05:39:58.084</text>
<text x="1500.0" y="405" font-size="12" fill="#444" transform="rotate(55 1500.0,405)">05:39:59.895</text>
<text x="1580.0" y="405" font-size="12" fill="#444" transform="rotate(55 1580.0,405)">05:40:01.731</text>
<text x="1660.0" y="405" font-size="12" fill="#444" transform="rotate(55 1660.0,405)">05:40:03.546</text>
<text x="1740.0" y="405" font-size="12" fill="#444" transform="rotate(55 1740.0,405)">05:40:05.368</text>
<text x="1820.0" y="405" font-size="12" fill="#444" transform="rotate(55 1820.0,405)">05:40:07.158</text>
<text x="1900.0" y="405" font-size="12" fill="#444" transform="rotate(55 1900.0,405)">05:40:08.950</text>
<text x="1980.0" y="405" font-size="12" fill="#444" transform="rotate(55 1980.0,405)">05:40:10.772</text>
<text x="2060.0" y="405" font-size="12" fill="#444" transform="rotate(55 2060.0,405)">05:40:12.565</text>
<text x="2140.0" y="405" font-size="12" fill="#444" transform="rotate(55 2140.0,405)">05:40:14.362</text>
<text x="2220.0" y="405" font-size="12" fill="#444" transform="rotate(55 2220.0,405)">05:40:16.173</text>
<text x="2300.0" y="405" font-size="12" fill="#444" transform="rotate(55 2300.0,405)">05:40:17.980</text>
<text x="2380.0" y="405" font-size="12" fill="#444" transform="rotate(55 2380.0,405)">05:40:19.798</text>
<text x="2460.0" y="405" font-size="12" fill="#444" transform="rotate(55 2460.0,405)">05:40:21.591</text>
<text x="2540.0" y="405" font-size="12" fill="#444" transform="rotate(55 2540.0,405)">05:40:23.401</text>
<text x="2620.0" y="405" font-size="12" fill="#444" transform="rotate(55 2620.0,405)">05:40:25.241</text>
<text x="2700.0" y="405" font-size="12" fill="#444" transform="rotate(55 2700.0,405)">05:40:27.049</text>
<text x="2780.0" y="405" font-size="12" fill="#444" transform="rotate(55 2780.0,405)">05:40:28.857</text>
<text x="2860.0" y="405" font-size="12" fill="#444" transform="rotate(55 2860.0,405)">05:40:30.682</text>
<text x="2940.0" y="405" font-size="12" fill="#444" transform="rotate(55 2940.0,405)">05:40:32.487</text>
<text x="3020.0" y="405" font-size="12" fill="#444" transform="rotate(55 3020.0,405)">05:40:34.298</text>
<text x="3100.0" y="405" font-size="12" fill="#444" transform="rotate(55 3100.0,405)">05:40:36.135</text>
<text x="3180.0" y="405" font-size="12" fill="#444" transform="rotate(55 3180.0,405)">05:40:37.953</text>
<text x="3260.0" y="405" font-size="12" fill="#444" transform="rotate(55 3260.0,405)">05:40:39.783</text>
<text x="3340.0" y="405" font-size="12" fill="#444" transform="rotate(55 3340.0,405)">05:40:41.609</text>
<text x="3420.0" y="405" font-size="12" fill="#444" transform="rotate(55 3420.0,405)">05:40:43.391</text>
<text x="3500.0" y="405" font-size="12" fill="#444" transform="rotate(55 3500.0,405)">05:40:45.173</text>
<text x="3580.0" y="405" font-size="12" fill="#444" transform="rotate(55 3580.0,405)">05:40:47.010</text>
<text x="3660.0" y="405" font-size="12" fill="#444" transform="rotate(55 3660.0,405)">05:40:48.819</text>
<text x="3740.0" y="405" font-size="12" fill="#444" transform="rotate(55 3740.0,405)">05:40:50.627</text>
<text x="3820.0" y="405" font-size="12" fill="#444" transform="rotate(55 3820.0,405)">05:40:52.435</text>
<text x="3900.0" y="405" font-size="12" fill="#444" transform="rotate(55 3900.0,405)">05:40:54.234</text>
<text x="3980.0" y="405" font-size="12" fill="#444" transform="rotate(55 3980.0,405)">05:40:56.018</text>
<text x="4060.0" y="405" font-size="12" fill="#444" transform="rotate(55 4060.0,405)">05:40:57.808</text>
<text x="4140.0" y="405" font-size="12" fill="#444" transform="rotate(55 4140.0,405)">05:40:59.594</text>
<text x="4220.0" y="405" font-size="12" fill="#444" transform="rotate(55 4220.0,405)">05:41:01.403</text>
<text x="4300.0" y="405" font-size="12" fill="#444" transform="rotate(55 4300.0,405)">05:41:03.199</text>
<text x="4380.0" y="405" font-size="12" fill="#444" transform="rotate(55 4380.0,405)">05:41:04.982</text>
<text x="4460.0" y="405" font-size="12" fill="#444" transform="rotate(55 4460.0,405)">05:41:06.786</text>
<text x="4540.0" y="405" font-size="12" fill="#444" transform="rotate(55 4540.0,405)">05:41:08.549</text>
<text x="4620.0" y="405" font-size="12" fill="#444" transform="rotate(55 4620.0,405)">05:41:10.331</text>
<text x="4700.0" y="405" font-size="12" fill="#444" transform="rotate(55 4700.0,405)">05:41:12.135</text>
<text x="4780.0" y="405" font-size="12" fill="#444" transform="rotate(55 4780.0,405)">05:41:13.910</text>
<text x="4860.0" y="405" font-size="12" fill="#444" transform="rotate(55 4860.0,405)">05:41:15.692</text>
<text x="4940.0" y="405" font-size="12" fill="#444" transform="rotate(55 4940.0,405)">05:41:17.484</text>
<text x="5020.0" y="405" font-size="12" fill="#444" transform="rotate(55 5020.0,405)">05:41:19.241</text>
<text x="5100.0" y="405" font-size="12" fill="#444" transform="rotate(55 5100.0,405)">05:41:21.058</text>
<text x="5180.0" y="405" font-size="12" fill="#444" transform="rotate(55 5180.0,405)">05:41:22.838</text>
<text x="5260.0" y="405" font-size="12" fill="#444" transform="rotate(55 5260.0,405)">05:41:24.591</text>
<text x="5340.0" y="405" font-size="12" fill="#444" transform="rotate(55 5340.0,405)">05:41:26.377</text>
<text x="5420.0" y="405" font-size="12" fill="#444" transform="rotate(55 5420.0,405)">05:41:28.151</text>
<text x="5500.0" y="405" font-size="12" fill="#444" transform="rotate(55 5500.0,405)">05:41:29.936</text>
<text x="5580.0" y="405" font-size="12" fill="#444" transform="rotate(55 5580.0,405)">05:41:31.722</text>
<text x="5660.0" y="405" font-size="12" fill="#444" transform="rotate(55 5660.0,405)">05:41:33.514</text>
<text x="5740.0" y="405" font-size="12" fill="#444" transform="rotate(55 5740.0,405)">05:41:35.356</text>
<text x="5820.0" y="405" font-size="12" fill="#444" transform="rotate(55 5820.0,405)">05:41:37.156</text>
<text x="5900.0" y="405" font-size="12" fill="#444" transform="rotate(55 5900.0,405)">05:41:38.942</text>
<text x="5980.0" y="405" font-size="12" fill="#444" transform="rotate(55 5980.0,405)">05:41:40.736</text>
<text x="6060.0" y="405" font-size="12" fill="#444" transform="rotate(55 6060.0,405)">05:41:42.541</text>
<text x="6140.0" y="405" font-size="12" fill="#444" transform="rotate(55 6140.0,405)">05:41:44.342</text>
<text x="6220.0" y="405" font-size="12" fill="#444" transform="rotate(55 6220.0,405)">05:41:46.121</text>
<text x="6300.0" y="405" font-size="12" fill="#444" transform="rotate(55 6300.0,405)">05:41:47.890</text>
<text x="6380.0" y="405" font-size="12" fill="#444" transform="rotate(55 6380.0,405)">05:41:49.681</text>
<text x="6460.0" y="405" font-size="12" fill="#444" transform="rotate(55 6460.0,405)">05:41:51.486</text>
<text x="6540.0" y="405" font-size="12" fill="#444" transform="rotate(55 6540.0,405)">05:41:53.247</text>
<text x="6620.0" y="405" font-size="12" fill="#444" transform="rotate(55 6620.0,405)">05:41:55.043</text>
<text x="6700.0" y="405" font-size="12" fill="#444" transform="rotate(55 6700.0,405)">05:41:56.842</text>
<text x="6780.0" y="405" font-size="12" fill="#444" transform="rotate(55 6780.0,405)">05:41:58.613</text>
<text x="6860.0" y="405" font-size="12" fill="#444" transform="rotate(55 6860.0,405)">05:42:00.351</text>
</svg>
