<svg width="800" height="300" xmlns="http://www.w3.org/2000/svg">
<rect x="0" y="0" width="800" height="300" fill="white" stroke="lightgray" />
<polyline fill="none" stroke="blue" stroke-width="2" points="10.0,182.5 14.9,21.9 19.8,147.7 24.6,253.3 29.5,195.8 34.4,147.1 39.2,39.2 44.1,63.1 49.0,212.0 53.9,192.4 58.8,248.7 63.6,45.0 68.5,197.3 73.4,52.6 78.2,120.3 83.1,249.3 88.0,283.3 92.9,274.8 97.8,91.4 102.6,265.2 107.5,147.4 112.4,94.4 117.3,216.3 122.1,151.4 127.0,226.6 131.9,22.0 136.8,148.3 141.6,229.8 146.5,260.5 151.4,167.8 156.2,37.6 161.1,247.4 166.0,138.4 170.9,187.8 175.8,280.5 180.6,94.5 185.5,124.5 190.4,288.6 195.2,141.1 200.1,170.9 205.0,127.0 209.9,85.0 214.8,267.6 219.6,28.4 224.5,244.9 229.4,33.3 234.2,89.9 239.1,64.6 244.0,256.2 248.9,34.1 253.8,50.5 258.6,290.0 263.5,289.4 268.4,20.7 273.2,180.5 278.1,276.5 283.0,188.4 287.9,31.1 292.8,264.2 297.6,43.1 302.5,174.8 307.4,78.8 312.2,147.6 317.1,199.4 322.0,267.7 326.9,54.3 331.8,100.4 336.6,190.5 341.5,176.2 346.4,102.5 351.2,10.0 356.1,240.1 361.0,74.7 365.9,190.8 370.8,235.1 375.6,100.6 380.5,274.6 385.4,270.4 390.2,18.0 395.1,40.9 400.0,158.4 404.9,38.5 409.7,235.3 414.6,121.2 419.5,63.7 424.4,94.0 429.2,200.3 434.1,287.2 439.0,180.9 443.9,37.1 448.8,257.2 453.6,165.7 458.5,102.2 463.4,187.7 468.2,224.9 473.1,228.8 478.0,101.0 482.9,287.3 487.8,208.3 492.6,215.9 497.5,248.0 502.4,24.7 507.2,186.4 512.1,121.2 517.0,87.0 521.9,77.0 526.8,59.1 531.6,185.2 536.5,235.6 541.4,179.3 546.2,197.2 551.1,274.6 556.0,235.8 560.9,152.1 565.8,12.2 570.6,25.4 575.5,37.8 580.4,275.8 585.2,217.9 590.1,264.0 595.0,97.9 599.9,125.6 604.8,77.3 609.6,121.3 614.5,191.9 619.4,98.4 624.2,28.1 629.1,82.5 634.0,225.3 638.9,93.7 643.8,203.4 648.6,66.8 653.5,29.5 658.4,268.6 663.2,146.9 668.1,255.8 673.0,110.2 677.9,42.1 682.8,179.7 687.6,75.1 692.5,31.0 697.4,72.4 702.2,88.8 707.1,16.5 712.0,158.2 716.9,234.7 721.8,183.6 726.6,174.0 731.5,47.9 736.4,196.1 741.2,83.7 746.1,125.9 751.0,240.5 755.9,249.4 760.8,158.6 765.6,52.6 770.5,47.8 775.4,67.0 780.2,277.6 785.1,265.2 790.0,94.9 " />
</svg>
