<svg width="6880" height="480" xmlns="http://www.w3.org/2000/svg">
<rect x="0" y="0" width="6880" height="480" fill="white" />
<line x1="60" y1="370.0" x2="6860" y2="370.0" stroke="#e0e0e0" />
<text x="5" y="374.0" font-size="12" fill="#333">0.00</text>
<line x1="60" y1="310.0" x2="6860" y2="310.0" stroke="#e0e0e0" />
<text x="5" y="314.0" font-size="12" fill="#333">0.83</text>
<line x1="60" y1="250.0" x2="6860" y2="250.0" stroke="#e0e0e0" />
<text x="5" y="254.0" font-size="12" fill="#333">1.67</text>
<line x1="60" y1="190.0" x2="6860" y2="190.0" stroke="#e0e0e0" />
<text x="5" y="194.0" font-size="12" fill="#333">2.50</text>
<line x1="60" y1="130.0" x2="6860" y2="130.0" stroke="#e0e0e0" />
<text x="5" y="134.0" font-size="12" fill="#333">3.33</text>
<line x1="60" y1="70.0" x2="6860" y2="70.0" stroke="#e0e0e0" />
<text x="5" y="74.0" font-size="12" fill="#333">4.16</text>
<line x1="60" y1="10.0" x2="6860" y2="10.0" stroke="#e0e0e0" />
<text x="5" y="14.0" font-size="12" fill="#333">5.00</text>
<polyline fill="none" stroke="blue" stroke-width="2" points="60.0,290.3 65.0,289.0 70.0,220.4 75.0,345.7 80.0,112.4 85.0,57.6 90.0,175.0 95.0,38.8 100.0,255.8 105.0,210.1 110.0,37.1 115.0,130.1 120.0,137.6 125.0,250.8 130.0,284.3 135.0,184.9 140.0,83.1 145.0,211.9 150.0,127.7 155.0,200.0 160.0,273.8 165.0,99.0 170.0,14.1 175.0,23.3 180.0,33.6 185.0,29.4 190.0,21.5 195.0,82.9 200.0,20.9 205.0,189.8 210.0,49.9 215.0,167.8 220.0,345.2 225.0,51.8 230.0,61.1 235.0,109.4 240.0,225.6 245.0,335.1 250.0,65.8 255.0,125.9 260.0,265.0 265.0,208.7 270.0,77.6 275.0,51.1 280.0,139.5 285.0,235.5 290.0,278.7 295.0,207.4 300.0,150.4 305.0,41.6 310.0,118.6 315.0,95.6 320.0,338.9 325.0,127.0 330.0,337.1 335.0,122.2 340.0,48.6 345.0,139.6 350.0,214.0 355.0,229.0 360.0,111.5 365.0,19.3 370.0,139.3 375.0,84.8 380.0,117.1 385.0,209.2 390.0,327.5 395.0,81.5 400.0,124.5 405.0,358.4 410.0,159.4 415.0,265.5 420.0,125.4 425.0,211.0 430.0,248.2 435.0,283.8 440.0,327.0 445.0,236.0 450.0,53.4 455.0,72.4 460.0,58.6 465.0,73.8 470.0,352.9 475.0,59.1 480.0,32.4 485.0,331.2 490.0,47.7 495.0,136.5 500.0,262.5 505.0,90.8 510.0,192.2 515.0,142.6 520.0,313.4 525.0,95.8 530.0,264.0 535.0,311.7 540.0,291.4 545.0,97.6 550.0,214.8 555.0,269.6 560.0,185.8 565.0,268.1 570.0,325.1 575.0,310.0 580.0,335.3 585.0,57.7 590.0,182.2 595.0,256.8 600.0,222.4 605.0,282.3 610.0,269.5 615.0,187.8 620.0,335.1 625.0,308.1 630.0,102.3 635.0,363.5 640.0,68.1 645.0,214.1 650.0,68.2 655.0,75.9 660.0,340.4 665.0,18.3 670.0,72.4 675.0,103.9 680.0,278.5 685.0,193.6 690.0,369.8 695.0,138.2 700.0,28.7 705.0,103.3 710.0,39.2 715.0,353.9 720.0,188.0 725.0,299.9 730.0,10.5 735.0,226.3 740.0,21.4 745.0,22.1 750.0,50.0 755.0,335.7 760.0,310.4 765.0,318.8 770.0,233.8 775.0,332.2 780.0,253.7 785.0,295.2 790.0,97.0 795.0,62.3 800.0,95.8 805.0,210.0 810.0,144.7 815.0,339.5 820.0,151.9 825.0,47.6 830.0,236.2 835.0,114.4 840.0,174.4 845.0,307.1 850.0,57.3 855.0,110.9 860.0,135.0 865.0,353.3 870.0,127.6 875.0,161.1 880.0,285.6 885.0,314.7 890.0,160.9 895.0,173.7 900.0,350.8 905.0,97.0 910.0,199.0 915.0,347.8 920.0,108.4 925.0,264.5 930.0,319.0 935.0,100.6 940.0,86.5 945.0,119.8 950.0,253.5 955.0,14.9 960.0,18.6 965.0,95.0 970.0,41.5 975.0,65.6 980.0,86.2 985.0,342.0 990.0,337.1 995.0,146.2 1000.0,298.2 1005.0,188.5 1010.0,287.6 1015.0,132.3 1020.0,36.4 1025.0,192.6 1030.0,253.6 1035.0,254.2 1040.0,227.7 1045.0,35.3 1050.0,246.3 1055.0,290.1 1060.0,10.6 1065.0,174.4 1070.0,292.9 1075.0,157.2 1080.0,63.1 1085.0,240.2 1090.0,219.1 1095.0,69.7 1100.0,261.6 1105.0,292.8 1110.0,20.2 1115.0,228.7 1120.0,261.7 1125.0,337.7 1130.0,78.9 1135.0,323.8 1140.0,166.3 1145.0,168.6 1150.0,177.1 1155.0,146.4 1160.0,141.7 1165.0,197.8 1170.0,307.6 1175.0,301.5 1180.0,146.6 1185.0,82.1 1190.0,183.0 1195.0,315.7 1200.0,55.7 1205.0,292.1 1210.0,227.6 1215.0,331.0 1220.0,55.7 1225.0,341.3 1230.0,301.8 1235.0,183.1 1240.0,112.4 1245.0,158.4 1250.0,109.0 1255.0,119.8 1260.0,48.3 1265.0,252.5 1270.0,186.7 1275.0,114.3 1280.0,252.5 1285.0,119.4 1290.0,150.7 1295.0,329.9 1300.0,328.1 1305.0,12.1 1310.0,143.5 1315.0,84.2 1320.0,24.9 1325.0,52.2 1330.0,244.5 1335.0,216.7 1340.0,307.6 1345.0,81.6 1350.0,46.5 1355.0,334.7 1360.0,314.4 1365.0,214.3 1370.0,262.0 1375.0,369.8 1380.0,113.9 1385.0,117.9 1390.0,249.5 1395.0,338.4 1400.0,50.9 1405.0,351.4 1410.0,61.1 1415.0,334.8 1420.0,269.0 1425.0,277.0 1430.0,189.6 1435.0,263.0 1440.0,325.6 1445.0,266.1 1450.0,161.2 1455.0,295.3 1460.0,32.2 1465.0,273.9 1470.0,273.7 1475.0,235.4 1480.0,113.7 1485.0,88.5 1490.0,226.5 1495.0,319.8 1500.0,85.0 1505.0,134.2 1510.0,208.0 1515.0,326.6 1520.0,55.9 1525.0,125.6 1530.0,353.6 1535.0,175.9 1540.0,85.9 1545.0,123.7 1550.0,48.4 1555.0,32.2 1560.0,77.8 1565.0,366.3 1570.0,325.9 1575.0,256.0 1580.0,129.7 1585.0,148.8 1590.0,233.2 1595.0,29.4 1600.0,58.3 1605.0,74.0 1610.0,112.0 1615.0,228.3 1620.0,77.3 1625.0,238.8 1630.0,162.9 1635.0,313.9 1640.0,204.0 1645.0,203.9 1650.0,270.7 1655.0,199.8 1660.0,113.4 1665.0,120.2 1670.0,254.1 1675.0,254.6 1680.0,204.7 1685.0,279.0 1690.0,256.8 1695.0,72.6 1700.0,51.5 1705.0,367.9 1710.0,337.1 1715.0,120.2 1720.0,228.8 1725.0,363.7 1730.0,303.5 1735.0,250.1 1740.0,238.6 1745.0,163.4 1750.0,315.9 1755.0,81.3 1760.0,210.8 1765.0,57.8 1770.0,152.1 1775.0,311.9 1780.0,108.9 1785.0,270.9 1790.0,319.6 1795.0,64.6 1800.0,51.0 1805.0,184.0 1810.0,18.9 1815.0,99.0 1820.0,194.3 1825.0,261.6 1830.0,337.2 1835.0,297.9 1840.0,11.1 1845.0,34.1 1850.0,94.7 1855.0,351.3 1860.0,63.5 1865.0,275.7 1870.0,85.6 1875.0,243.4 1880.0,12.9 1885.0,131.6 1890.0,226.0 1895.0,53.3 1900.0,182.1 1905.0,321.0 1910.0,252.5 1915.0,261.8 1920.0,123.0 1925.0,245.4 1930.0,314.9 1935.0,332.7 1940.0,245.8 1945.0,193.0 1950.0,93.9 1955.0,213.2 1960.0,317.2 1965.0,190.5 1970.0,88.9 1975.0,37.3 1980.0,91.8 1985.0,217.1 1990.0,353.8 1995.0,170.7 2000.0,301.1 2005.0,61.9 2010.0,191.2 2015.0,181.9 2020.0,43.4 2025.0,262.7 2030.0,135.5 2035.0,316.0 2040.0,265.8 2045.0,285.8 2050.0,208.7 2055.0,221.7 2060.0,142.5 2065.0,363.7 2070.0,25.5 2075.0,317.2 2080.0,127.4 2085.0,331.6 2090.0,169.0 2095.0,15.9 2100.0,343.1 2105.0,100.0 2110.0,269.3 2115.0,55.3 2120.0,189.4 2125.0,274.5 2130.0,246.6 2135.0,364.3 2140.0,267.5 2145.0,101.2 2150.0,238.1 2155.0,365.3 2160.0,208.5 2165.0,305.9 2170.0,316.9 2175.0,63.2 2180.0,294.1 2185.0,348.7 2190.0,255.7 2195.0,201.5 2200.0,150.7 2205.0,84.7 2210.0,177.3 2215.0,31.5 2220.0,276.1 2225.0,102.5 2230.0,134.7 2235.0,52.8 2240.0,312.7 2245.0,316.1 2250.0,189.4 2255.0,41.2 2260.0,120.1 2265.0,280.2 2270.0,290.4 2275.0,66.1 2280.0,186.5 2285.0,166.0 2290.0,80.2 2295.0,32.3 2300.0,90.1 2305.0,31.4 2310.0,281.7 2315.0,115.9 2320.0,225.6 2325.0,328.6 2330.0,35.3 2335.0,240.3 2340.0,154.8 2345.0,188.8 2350.0,33.7 2355.0,64.5 2360.0,204.2 2365.0,359.5 2370.0,284.3 2375.0,339.3 2380.0,169.8 2385.0,245.8 2390.0,323.8 2395.0,230.5 2400.0,131.9 2405.0,344.3 2410.0,255.5 2415.0,240.9 2420.0,350.4 2425.0,144.4 2430.0,134.9 2435.0,270.5 2440.0,214.8 2445.0,238.5 2450.0,115.0 2455.0,362.7 2460.0,80.0 2465.0,281.0 2470.0,64.3 2475.0,287.8 2480.0,222.2 2485.0,100.4 2490.0,351.7 2495.0,85.1 2500.0,184.0 2505.0,237.8 2510.0,172.2 2515.0,313.3 2520.0,190.8 2525.0,94.7 2530.0,290.4 2535.0,109.4 2540.0,327.5 2545.0,66.3 2550.0,314.4 2555.0,76.6 2560.0,205.5 2565.0,359.4 2570.0,240.3 2575.0,13.7 2580.0,64.5 2585.0,55.3 2590.0,271.2 2595.0,21.0 2600.0,177.0 2605.0,132.4 2610.0,80.3 2615.0,197.1 2620.0,81.5 2625.0,354.4 2630.0,69.6 2635.0,124.4 2640.0,182.8 2645.0,90.9 2650.0,96.0 2655.0,141.6 2660.0,221.9 2665.0,235.6 2670.0,272.2 2675.0,306.2 2680.0,35.0 2685.0,139.4 2690.0,90.0 2695.0,48.5 2700.0,109.2 2705.0,19.5 2710.0,82.0 2715.0,81.1 2720.0,296.5 2725.0,138.8 2730.0,240.7 2735.0,277.7 2740.0,353.8 2745.0,26.5 2750.0,23.3 2755.0,284.3 2760.0,207.6 2765.0,289.0 2770.0,102.5 2775.0,320.7 2780.0,336.7 2785.0,72.1 2790.0,242.6 2795.0,48.8 2800.0,207.8 2805.0,293.6 2810.0,212.6 2815.0,239.7 2820.0,37.2 2825.0,135.3 2830.0,236.5 2835.0,28.1 2840.0,289.8 2845.0,264.8 2850.0,205.6 2855.0,158.2 2860.0,64.6 2865.0,19.8 2870.0,243.3 2875.0,260.0 2880.0,236.4 2885.0,177.1 2890.0,151.7 2895.0,52.0 2900.0,272.3 2905.0,196.0 2910.0,125.0 2915.0,121.6 2920.0,314.0 2925.0,329.4 2930.0,112.8 2935.0,13.8 2940.0,211.2 2945.0,348.9 2950.0,362.5 2955.0,193.4 2960.0,332.4 2965.0,246.2 2970.0,196.8 2975.0,348.0 2980.0,192.8 2985.0,300.7 2990.0,264.3 2995.0,281.9 3000.0,220.2 3005.0,257.8 3010.0,123.2 3015.0,210.9 3020.0,142.2 3025.0,227.8 3030.0,109.9 3035.0,28.0 3040.0,289.2 3045.0,320.3 3050.0,270.5 3055.0,264.0 3060.0,219.9 3065.0,109.0 3070.0,359.0 3075.0,115.1 3080.0,207.6 3085.0,352.7 3090.0,341.1 3095.0,303.4 3100.0,112.0 3105.0,125.7 3110.0,257.1 3115.0,342.3 3120.0,369.5 3125.0,307.8 3130.0,253.2 3135.0,192.1 3140.0,133.6 3145.0,138.3 3150.0,134.4 3155.0,221.1 3160.0,103.0 3165.0,242.7 3170.0,17.7 3175.0,353.7 3180.0,219.6 3185.0,36.7 3190.0,86.9 3195.0,229.1 3200.0,136.0 3205.0,369.9 3210.0,275.9 3215.0,93.0 3220.0,254.7 3225.0,232.6 3230.0,296.2 3235.0,165.3 3240.0,141.6 3245.0,136.2 3250.0,169.2 3255.0,334.2 3260.0,23.4 3265.0,136.3 3270.0,83.5 3275.0,205.8 3280.0,320.5 3285.0,318.6 3290.0,344.3 3295.0,100.1 3300.0,130.8 3305.0,91.2 3310.0,202.7 3315.0,290.3 3320.0,73.7 3325.0,304.0 3330.0,127.9 3335.0,287.5 3340.0,172.2 3345.0,82.5 3350.0,80.1 3355.0,322.9 3360.0,138.8 3365.0,90.2 3370.0,326.7 3375.0,271.8 3380.0,102.3 3385.0,181.9 3390.0,93.5 3395.0,349.0 3400.0,332.8 3405.0,207.0 3410.0,339.5 3415.0,61.0 3420.0,120.2 3425.0,127.5 3430.0,238.4 3435.0,177.4 3440.0,209.3 3445.0,170.6 3450.0,18.1 3455.0,180.4 3460.0,245.8 3465.0,153.9 3470.0,27.7 3475.0,215.6 3480.0,303.9 3485.0,88.6 3490.0,197.7 3495.0,158.3 3500.0,194.4 3505.0,272.6 3510.0,116.8 3515.0,305.6 3520.0,88.0 3525.0,17.4 3530.0,273.0 3535.0,88.2 3540.0,178.7 3545.0,76.7 3550.0,341.6 3555.0,297.1 3560.0,175.2 3565.0,210.6 3570.0,187.0 3575.0,69.5 3580.0,278.9 3585.0,340.8 3590.0,331.5 3595.0,338.3 3600.0,79.9 3605.0,108.0 3610.0,199.3 3615.0,240.9 3620.0,82.7 3625.0,344.0 3630.0,64.4 3635.0,120.6 3640.0,34.4 3645.0,38.6 3650.0,278.0 3655.0,146.2 3660.0,276.2 3665.0,355.9 3670.0,136.8 3675.0,367.9 3680.0,334.1 3685.0,274.0 3690.0,311.4 3695.0,53.6 3700.0,256.5 3705.0,315.7 3710.0,191.9 3715.0,78.7 3720.0,71.1 3725.0,296.0 3730.0,324.8 3735.0,105.2 3740.0,119.6 3745.0,213.7 3750.0,45.1 3755.0,33.5 3760.0,71.0 3765.0,279.1 3770.0,297.9 3775.0,213.2 3780.0,48.5 3785.0,303.9 3790.0,83.3 3795.0,266.0 3800.0,182.2 3805.0,19.1 3810.0,35.7 3815.0,162.1 3820.0,160.8 3825.0,92.1 3830.0,102.1 3835.0,337.7 3840.0,349.2 3845.0,216.6 3850.0,77.2 3855.0,302.6 3860.0,161.5 3865.0,10.9 3870.0,116.5 3875.0,306.0 3880.0,357.4 3885.0,235.1 3890.0,339.4 3895.0,144.3 3900.0,256.9 3905.0,284.7 3910.0,255.6 3915.0,58.5 3920.0,133.6 3925.0,287.2 3930.0,300.8 3935.0,114.1 3940.0,210.6 3945.0,36.0 3950.0,233.9 3955.0,168.3 3960.0,254.1 3965.0,64.8 3970.0,197.1 3975.0,289.5 3980.0,154.9 3985.0,49.6 3990.0,308.3 3995.0,113.1 4000.0,198.6 4005.0,193.6 4010.0,275.7 4015.0,20.4 4020.0,281.9 4025.0,284.7 4030.0,188.8 4035.0,198.0 4040.0,259.1 4045.0,197.4 4050.0,15.7 4055.0,195.2 4060.0,357.0 4065.0,223.8 4070.0,185.0 4075.0,11.6 4080.0,239.2 4085.0,287.8 4090.0,217.8 4095.0,67.0 4100.0,239.4 4105.0,23.9 4110.0,267.5 4115.0,278.9 4120.0,84.9 4125.0,60.8 4130.0,104.6 4135.0,183.0 4140.0,121.0 4145.0,169.4 4150.0,254.7 4155.0,223.1 4160.0,289.9 4165.0,149.0 4170.0,353.1 4175.0,52.6 4180.0,347.4 4185.0,185.7 4190.0,208.2 4195.0,268.9 4200.0,91.5 4205.0,178.8 4210.0,322.7 4215.0,56.2 4220.0,74.2 4225.0,256.0 4230.0,94.7 4235.0,81.8 4240.0,117.6 4245.0,286.8 4250.0,44.2 4255.0,351.4 4260.0,20.3 4265.0,27.2 4270.0,223.0 4275.0,133.1 4280.0,62.0 4285.0,143.7 4290.0,85.6 4295.0,220.4 4300.0,365.8 4305.0,47.6 4310.0,240.1 4315.0,239.4 4320.0,150.8 4325.0,165.1 4330.0,98.0 4335.0,29.0 4340.0,117.0 4345.0,291.1 4350.0,282.0 4355.0,214.2 4360.0,25.7 4365.0,299.1 4370.0,330.8 4375.0,184.0 4380.0,339.4 4385.0,140.1 4390.0,359.0 4395.0,164.7 4400.0,50.2 4405.0,367.3 4410.0,148.0 4415.0,205.7 4420.0,22.0 4425.0,239.8 4430.0,245.4 4435.0,82.9 4440.0,39.6 4445.0,340.7 4450.0,229.1 4455.0,338.6 4460.0,85.4 4465.0,197.0 4470.0,73.8 4475.0,205.4 4480.0,296.6 4485.0,30.8 4490.0,117.6 4495.0,87.9 4500.0,193.9 4505.0,79.3 4510.0,151.0 4515.0,212.2 4520.0,158.4 4525.0,252.2 4530.0,35.9 4535.0,342.6 4540.0,104.2 4545.0,308.8 4550.0,311.3 4555.0,219.0 4560.0,131.6 4565.0,239.1 4570.0,136.9 4575.0,338.0 4580.0,156.9 4585.0,255.5 4590.0,76.9 4595.0,60.4 4600.0,64.8 4605.0,136.4 4610.0,228.2 4615.0,162.3 4620.0,157.9 4625.0,49.4 4630.0,254.8 4635.0,146.5 4640.0,163.6 4645.0,95.0 4650.0,331.8 4655.0,110.1 4660.0,202.2 4665.0,316.4 4670.0,162.2 4675.0,136.5 4680.0,110.1 4685.0,20.7 4690.0,41.7 4695.0,256.7 4700.0,179.1 4705.0,179.8 4710.0,117.1 4715.0,63.5 4720.0,24.9 4725.0,269.7 4730.0,194.3 4735.0,251.3 4740.0,169.6 4745.0,193.3 4750.0,217.7 4755.0,55.7 4760.0,20.0 4765.0,10.9 4770.0,115.0 4775.0,52.8 4780.0,102.0 4785.0,113.4 4790.0,114.9 4795.0,211.1 4800.0,151.3 4805.0,79.4 4810.0,370.0 4815.0,73.6 4820.0,54.4 4825.0,272.4 4830.0,193.2 4835.0,267.9 4840.0,156.7 4845.0,207.4 4850.0,337.9 4855.0,149.4 4860.0,121.8 4865.0,197.7 4870.0,255.8 4875.0,366.8 4880.0,281.2 4885.0,291.8 4890.0,320.1 4895.0,36.0 4900.0,345.2 4905.0,21.5 4910.0,145.8 4915.0,118.2 4920.0,103.1 4925.0,264.0 4930.0,83.7 4935.0,143.4 4940.0,102.8 4945.0,330.2 4950.0,33.5 4955.0,214.8 4960.0,217.4 4965.0,306.7 4970.0,113.7 4975.0,91.8 4980.0,246.7 4985.0,204.8 4990.0,99.5 4995.0,149.3 5000.0,33.6 5005.0,360.7 5010.0,240.2 5015.0,186.0 5020.0,175.0 5025.0,120.2 5030.0,25.3 5035.0,64.4 5040.0,198.2 5045.0,291.6 5050.0,113.3 5055.0,82.4 5060.0,347.7 5065.0,100.3 5070.0,180.1 5075.0,70.8 5080.0,261.2 5085.0,113.9 5090.0,37.1 5095.0,226.8 5100.0,85.9 5105.0,286.4 5110.0,106.2 5115.0,193.2 5120.0,188.6 5125.0,369.0 5130.0,292.2 5135.0,125.5 5140.0,172.2 5145.0,201.5 5150.0,78.6 5155.0,22.0 5160.0,149.5 5165.0,173.4 5170.0,188.1 5175.0,193.4 5180.0,357.3 5185.0,14.5 5190.0,129.3 5195.0,321.8 5200.0,79.3 5205.0,326.6 5210.0,119.3 5215.0,309.3 5220.0,168.4 5225.0,273.6 5230.0,282.0 5235.0,31.5 5240.0,216.0 5245.0,319.1 5250.0,177.1 5255.0,179.1 5260.0,358.7 5265.0,341.8 5270.0,310.0 5275.0,228.4 5280.0,288.5 5285.0,300.9 5290.0,153.4 5295.0,35.1 5300.0,122.7 5305.0,133.5 5310.0,15.7 5315.0,65.9 5320.0,317.7 5325.0,363.7 5330.0,327.4 5335.0,298.3 5340.0,177.6 5345.0,209.1 5350.0,263.3 5355.0,347.2 5360.0,144.4 5365.0,15.5 5370.0,323.7 5375.0,323.3 5380.0,301.3 5385.0,336.1 5390.0,193.6 5395.0,133.0 5400.0,322.2 5405.0,89.8 5410.0,129.8 5415.0,23.5 5420.0,179.1 5425.0,37.0 5430.0,198.9 5435.0,31.5 5440.0,128.2 5445.0,79.9 5450.0,186.2 5455.0,137.9 5460.0,294.9 5465.0,344.1 5470.0,243.4 5475.0,163.2 5480.0,186.8 5485.0,159.3 5490.0,212.8 5495.0,243.6 5500.0,236.2 5505.0,47.2 5510.0,54.0 5515.0,255.1 5520.0,20.4 5525.0,142.0 5530.0,33.2 5535.0,189.6 5540.0,37.2 5545.0,324.5 5550.0,278.4 5555.0,176.4 5560.0,339.8 5565.0,156.6 5570.0,245.4 5575.0,246.4 5580.0,255.4 5585.0,289.2 5590.0,275.0 5595.0,269.4 5600.0,315.2 5605.0,340.2 5610.0,100.0 5615.0,302.1 5620.0,292.2 5625.0,145.4 5630.0,365.6 5635.0,70.3 5640.0,319.5 5645.0,103.6 5650.0,87.5 5655.0,77.9 5660.0,144.6 5665.0,369.2 5670.0,272.1 5675.0,89.8 5680.0,329.1 5685.0,16.6 5690.0,239.9 5695.0,85.5 5700.0,95.2 5705.0,10.0 5710.0,102.6 5715.0,69.8 5720.0,153.9 5725.0,313.3 5730.0,199.8 5735.0,13.7 5740.0,289.7 5745.0,185.0 5750.0,30.0 5755.0,43.8 5760.0,317.5 5765.0,314.9 5770.0,200.1 5775.0,124.8 5780.0,211.5 5785.0,13.9 5790.0,193.7 5795.0,61.4 5800.0,56.2 5805.0,340.6 5810.0,84.2 5815.0,161.1 5820.0,33.2 5825.0,276.7 5830.0,226.0 5835.0,11.4 5840.0,30.0 5845.0,329.7 5850.0,344.3 5855.0,281.0 5860.0,52.8 5865.0,240.0 5870.0,300.4 5875.0,153.1 5880.0,165.4 5885.0,76.0 5890.0,130.9 5895.0,313.2 5900.0,272.1 5905.0,116.3 5910.0,68.3 5915.0,154.2 5920.0,209.0 5925.0,172.9 5930.0,219.0 5935.0,274.0 5940.0,367.0 5945.0,289.2 5950.0,313.1 5955.0,31.0 5960.0,120.3 5965.0,194.5 5970.0,363.4 5975.0,56.8 5980.0,342.3 5985.0,161.7 5990.0,136.9 5995.0,220.0 6000.0,48.6 6005.0,34.9 6010.0,17.1 6015.0,150.5 6020.0,141.3 6025.0,56.7 6030.0,215.5 6035.0,332.7 6040.0,217.7 6045.0,177.1 6050.0,198.4 6055.0,241.5 6060.0,355.0 6065.0,196.6 6070.0,146.5 6075.0,338.9 6080.0,147.9 6085.0,270.5 6090.0,361.7 6095.0,37.3 6100.0,325.4 6105.0,343.0 6110.0,135.2 6115.0,66.7 6120.0,148.4 6125.0,188.9 6130.0,117.6 6135.0,245.0 6140.0,91.0 6145.0,248.5 6150.0,104.3 6155.0,48.0 6160.0,332.5 6165.0,115.2 6170.0,310.9 6175.0,237.3 6180.0,128.2 6185.0,367.3 6190.0,255.6 6195.0,34.5 6200.0,115.5 6205.0,113.5 6210.0,109.5 6215.0,271.2 6220.0,12.7 6225.0,242.8 6230.0,332.0 6235.0,227.5 6240.0,343.3 6245.0,120.5 6250.0,160.1 6255.0,132.8 6260.0,270.3 6265.0,35.2 6270.0,196.3 6275.0,128.2 6280.0,241.2 6285.0,184.8 6290.0,27.2 6295.0,282.8 6300.0,200.6 6305.0,247.3 6310.0,108.6 6315.0,66.7 6320.0,285.0 6325.0,162.4 6330.0,44.6 6335.0,54.0 6340.0,121.0 6345.0,326.9 6350.0,329.8 6355.0,70.9 6360.0,292.7 6365.0,327.4 6370.0,41.5 6375.0,144.7 6380.0,97.3 6385.0,227.9 6390.0,42.7 6395.0,92.5 6400.0,230.7 6405.0,270.0 6410.0,131.9 6415.0,323.8 6420.0,186.4 6425.0,196.4 6430.0,236.4 6435.0,207.6 6440.0,20.5 6445.0,284.4 6450.0,241.8 6455.0,283.7 6460.0,291.9 6465.0,173.2 6470.0,237.8 6475.0,366.3 6480.0,314.6 6485.0,90.8 6490.0,28.5 6495.0,131.4 6500.0,55.2 6505.0,276.4 6510.0,259.7 6515.0,165.7 6520.0,44.8 6525.0,300.9 6530.0,329.9 6535.0,43.9 6540.0,270.1 6545.0,132.1 6550.0,193.1 6555.0,152.0 6560.0,244.2 6565.0,226.3 6570.0,82.0 6575.0,223.4 6580.0,300.8 6585.0,232.1 6590.0,209.0 6595.0,258.7 6600.0,178.5 6605.0,227.7 6610.0,72.8 6615.0,77.5 6620.0,254.6 6625.0,314.0 6630.0,253.7 6635.0,302.1 6640.0,192.1 6645.0,147.6 6650.0,163.3 6655.0,47.7 6660.0,18.0 6665.0,183.2 6670.0,340.8 6675.0,364.8 6680.0,184.2 6685.0,192.9 6690.0,225.2 6695.0,284.9 6700.0,186.3 6705.0,212.3 6710.0,363.7 6715.0,140.2 6720.0,367.6 6725.0,181.9 6730.0,233.0 6735.0,235.2 6740.0,250.9 6745.0,315.1 6750.0,172.0 6755.0,235.1 6760.0,255.2 6765.0,89.2 6770.0,114.6 6775.0,336.5 6780.0,340.6 6785.0,219.1 6790.0,341.4 6795.0,275.3 6800.0,356.0 6805.0,106.6 6810.0,74.5 6815.0,13.8 6820.0,154.0 6825.0,265.4 6830.0,229.6 6835.0,56.7 6840.0,137.1 6845.0,79.8 6850.0,345.3 6855.0,282.1 6860.0,41.6 " />
<text x="60.0" y="405" font-size="12" fill="#444" transform="rotate(55 60.0,405)">05:39:27.804</text>
<text x="140.0" y="405" font-size="12" fill="#444" transform="rotate(55 140.0,405)">05:39:29.574</text>
<text x="220.0" y="405" font-size="12" fill="#444" transform="rotate(55 220.0,405)">05:39:31.358</text>
<text x="300.0" y="405" font-size="12" fill="#444" transform="rotate(55 300.0,405)">05:39:33.120</text>
<text x="380.0" y="405" font-size="12" fill="#444" transform="rotate(55 380.0,405)">05:39:34.899</text>
<text x="460.0" y="405" font-size="12" fill="#444" transform="rotate(55 460.0,405)">05:39:36.655</text>
<text x="540.0" y="405" font-size="12" fill="#444" transform="rotate(55 540.0,405)">05:39:38.425</text>
<text x="620.0" y="405" font-size="12" fill="#444" transform="rotate(55 620.0,405)">05:39:40.196</text>
<text x="700.0" y="405" font-size="12" fill="#444" transform="rotate(55 700.0,405)">05:39:41.970</text>
<text x="780.0" y="405" font-size="12" fill="#444" transform="rotate(55 780.0,405)">05:39:43.773</text>
<text x="860.0" y="405" font-size="12" fill="#444" transform="rotate(55 860.0,405)">05:39:45.561</text>
<text x="940.0" y="405" font-size="12" fill="#444" transform="rotate(55 940.0,405)">05:39:47.341</text>
<text x="1020.0" y="405" font-size="12" fill="#444" transform="rotate(55 1020.0,405)">05:39:49.134</text>
<text x="1100.0" y="405" font-size="12" fill="#444" transform="rotate(55 1100.0,405)">05:39:50.922</text>
<text x="1180.0" y="405" font-size="12" fill="#444" transform="rotate(55 1180.0,405)">05:39:52.691</text>
<text x="1260.0" y="405" font-size="12" fill="#444" transform="rotate(55 1260.0,405)">05:39:54.476</text>
<text x="1340.0" y="405" font-size="12" fill="#444" transform="rotate(55 1340.0,405)">05:39:56.295</text>
<text x="1420.0" y="405" font-size="12" fill="#444" transform="rotate(55 1420.0,405)">05:39:58.084</text>
<text x="1500.0" y="405" font-size="12" fill="#444" transform="rotate(55 1500.0,405)">05:39:59.895</text>
<text x="1580.0" y="405" font-size="12" fill="#444" transform="rotate(55 1580.0,405)">05:40:01.731</text>
<text x="1660.0" y="405" font-size="12" fill="#444" transform="rotate(55 1660.0,405)">05:40:03.546</text>
<text x="1740.0" y="405" font-size="12" fill="#444" transform="rotate(55 1740.0,405)">05:40:05.368</text>
<text x="1820.0" y="405" font-size="12" fill="#444" transform="rotate(55 1820.0,405)">05:40:07.158</text>
<text x="1900.0" y="405" font-size="12" fill="#444" transform="rotate(55 1900.0,405)">05:40:08.950</text>
<text x="1980.0" y="405" font-size="12" fill="#444" transform="rotate(55 1980.0,405)">05:40:10.772</text>
<text x="2060.0" y="405" font-size="12" fill="#444" transform="rotate(55 2060.0,405)">05:40:12.565</text>
<text x="2140.0" y="405" font-size="12" fill="#444" transform="rotate(55 2140.0,405)">05:40:14.362</text>
<text x="2220.0" y="405" font-size="12" fill="#444" transform="rotate(55 2220.0,405)">05:40:16.173</text>
<text x="2300.0" y="405" font-size="12" fill="#444" transform="rotate(55 2300.0,405)">05:40:17.980</text>
<text x="2380.0" y="405" font-size="12" fill="#444" transform="rotate(55 2380.0,405)">05:40:19.798</text>
<text x="2460.0" y="405" font-size="12" fill="#444" transform="rotate(55 2460.0,405)">05:40:21.591</text>
<text x="2540.0" y="405" font-size="12" fill="#444" transform="rotate(55 2540.0,405)">05:40:23.401</text>
<text x="2620.0" y="405" font-size="12" fill="#444" transform="rotate(55 2620.0,405)">05:40:25.241</text>
<text x="2700.0" y="405" font-size="12" fill="#444" transform="rotate(55 2700.0,405)">05:40:27.049</text>
<text x="2780.0" y="405" font-size="12" fill="#444" transform="rotate(55 2780.0,405)">05:40:28.857</text>
<text x="2860.0" y="405" font-size="12" fill="#444" transform="rotate(55 2860.0,405)">05:40:30.682</text>
<text x="2940.0" y="405" font-size="12" fill="#444" transform="rotate(55 2940.0,405)">05:40:32.487</text>
<text x="3020.0" y="405" font-size="12" fill="#444" transform="rotate(55 3020.0,405)">05:40:34.298</text>
<text x="3100.0" y="405" font-size="12" fill="#444" transform="rotate(55 3100.0,405)">05:40:36.135</text>
<text x="3180.0" y="405" font-size="12" fill="#444" transform="rotate(55 3180.0,405)">05:40:37.953</text>
<text x="3260.0" y="405" font-size="12" fill="#444" transform="rotate(55 3260.0,405)">05:40:39.783</text>
<text x="3340.0" y="405" font-size="12" fill="#444" transform="rotate(55 3340.0,405)">05:40:41.609</text>
<text x="3420.0" y="405" font-size="12" fill="#444" transform="rotate(55 3420.0,405)">05:40:43.391</text>
<text x="3500.0" y="405" font-size="12" fill="#444" transform="rotate(55 3500.0,405)">05:40:45.173</text>
<text x="3580.0" y="405" font-size="12" fill="#444" transform="rotate(55 3580.0,405)">05:40:47.010</text>
<text x="3660.0" y="405" font-size="12" fill="#444" transform="rotate(55 3660.0,405)">05:40:48.819</text>
<text x="3740.0" y="405" font-size="12" fill="#444" transform="rotate(55 3740.0,405)">05:40:50.627</text>
<text x="3820.0" y="405" font-size="12" fill="#444" transform="rotate(55 3820.0,405)">05:40:52.435</text>
<text x="3900.0" y="405" font-size="12" fill="#444" transform="rotate(55 3900.0,405)">05:40:54.234</text>
<text x="3980.0" y="405" font-size="12" fill="#444" transform="rotate(55 3980.0,405)">05:40:56.018</text>
<text x="4060.0" y="405" font-size="12" fill="#444" transform="rotate(55 4060.0,405)">05:40:57.808</text>
<text x="4140.0" y="405" font-size="12" fill="#444" transform="rotate(55 4140.0,405)">05:40:59.594</text>
<text x="4220.0" y="405" font-size="12" fill="#444" transform="rotate(55 4220.0,405)">05:41:01.403</text>
<text x="4300.0" y="405" font-size="12" fill="#444" transform="rotate(55 4300.0,405)">05:41:03.199</text>
<text x="4380.0" y="405" font-size="12" fill="#444" transform="rotate(55 4380.0,405)">05:41:04.982</text>
<text x="4460.0" y="405" font-size="12" fill="#444" transform="rotate(55 4460.0,405)">05:41:06.786</text>
<text x="4540.0" y="405" font-size="12" fill="#444" transform="rotate(55 4540.0,405)">05:41:08.549</text>
<text x="4620.0" y="405" font-size="12" fill="#444" transform="rotate(55 4620.0,405)">05:41:10.331</text>
<text x="4700.0" y="405" font-size="12" fill="#444" transform="rotate(55 4700.0,405)">05:41:12.135</text>
<text x="4780.0" y="405" font-size="12" fill="#444" transform="rotate(55 4780.0,405)">05:41:13.910</text>
<text x="4860.0" y="405" font-size="12" fill="#444" transform="rotate(55 4860.0,405)">05:41:15.692</text>
<text x="4940.0" y="405" font-size="12" fill="#444" transform="rotate(55 4940.0,405)">05:41:17.484</text>
<text x="5020.0" y="405" font-size="12" fill="#444" transform="rotate(55 5020.0,405)">05:41:19.241</text>
<text x="5100.0" y="405" font-size="12" fill="#444" transform="rotate(55 5100.0,405)">05:41:21.058</text>
<text x="5180.0" y="405" font-size="12" fill="#444" transform="rotate(55 5180.0,405)">05:41:22.838</text>
<text x="5260.0" y="405" font-size="12" fill="#444" transform="rotate(55 5260.0,405)">05:41:24.591</text>
<text x="5340.0" y="405" font-size="12" fill="#444" transform="rotate(55 5340.0,405)">05:41:26.377</text>
<text x="5420.0" y="405" font-size="12" fill="#444" transform="rotate(55 5420.0,405)">05:41:28.151</text>
<text x="5500.0" y="405" font-size="12" fill="#444" transform="rotate(55 5500.0,405)">05:41:29.936</text>
<text x="5580.0" y="405" font-size="12" fill="#444" transform="rotate(55 5580.0,405)">05:41:31.722</text>
<text x="5660.0" y="405" font-size="12" fill="#444" transform="rotate(55 5660.0,405)">05:41:33.514</text>
<text x="5740.0" y="405" font-size="12" fill="#444" transform="rotate(55 5740.0,405)">05:41:35.356</text>
<text x="5820.0" y="405" font-size="12" fill="#444" transform="rotate(55 5820.0,405)">05:41:37.156</text>
<text x="5900.0" y="405" font-size="12" fill="#444" transform="rotate(55 5900.0,405)">05:41:38.942</text>
<text x="5980.0" y="405" font-size="12" fill="#444" transform="rotate(55 5980.0,405)">05:41:40.736</text>
<text x="6060.0" y="405" font-size="12" fill="#444" transform="rotate(55 6060.0,405)">05:41:42.541</text>
<text x="6140.0" y="405" font-size="12" fill="#444" transform="rotate(55 6140.0,405)">05:41:44.342</text>
<text x="6220.0" y="405" font-size="12" fill="#444" transform="rotate(55 6220.0,405)">05:41:46.121</text>
<text x="6300.0" y="405" font-size="12" fill="#444" transform="rotate(55 6300.0,405)">05:41:47.890</text>
<text x="6380.0" y="405" font-size="12" fill="#444" transform="rotate(55 6380.0,405)">05:41:49.681</text>
<text x="6460.0" y="405" font-size="12" fill="#444" transform="rotate(55 6460.0,405)">05:41:51.486</text>
<text x="6540.0" y="405" font-size="12" fill="#444" transform="rotate(55 6540.0,405)">05:41:53.247</text>
<text x="6620.0" y="405" font-size="12" fill="#444" transform="rotate(55 6620.0,405)">05:41:55.043</text>
<text x="6700.0" y="405" font-size="12" fill="#444" transform="rotate(55 6700.0,405)">05:41:56.842</text>
<text x="6780.0" y="405" font-size="12" fill="#444" transform="rotate(55 6780.0,405)">05:41:58.613</text>
<text x="6860.0" y="405" font-size="12" fill="#444" transform="rotate(55 6860.0,405)">05:42:00.351</text>
</svg>
