<svg width="800" height="300" xmlns="http://www.w3.org/2000/svg">
<rect x="0" y="0" width="800" height="300" fill="white" stroke="lightgray" />
<polyline fill="none" stroke="blue" stroke-width="2" points="10.0,240.7 14.9,220.8 19.8,287.5 24.6,96.2 29.5,164.0 34.4,262.3 39.2,208.7 44.1,255.5 49.0,275.8 53.9,290.0 58.8,111.6 63.6,114.3 68.5,287.4 73.4,195.7 78.2,161.7 83.1,234.1 88.0,49.0 92.9,132.5 97.8,191.7 102.6,127.8 107.5,137.8 112.4,158.9 117.3,271.0 122.1,164.3 127.0,215.2 131.9,134.3 136.8,270.3 141.6,229.2 146.5,212.8 151.4,282.7 156.2,18.5 161.1,25.6 166.0,200.3 170.9,199.9 175.8,269.8 180.6,72.2 185.5,182.0 190.4,116.3 195.2,117.9 200.1,33.1 205.0,119.1 209.9,92.5 214.8,126.4 219.6,68.7 224.5,190.1 229.4,43.9 234.2,206.8 239.1,282.2 244.0,155.4 248.9,225.0 253.8,178.1 258.6,154.1 263.5,58.6 268.4,54.5 273.2,70.0 278.1,228.2 283.0,126.5 287.9,249.2 292.8,67.0 297.6,92.3 302.5,177.2 307.4,135.4 312.2,114.2 317.1,203.9 322.0,180.3 326.9,134.9 331.8,134.6 336.6,174.3 341.5,271.6 346.4,83.6 351.2,272.6 356.1,191.8 361.0,165.8 365.9,207.2 370.8,37.8 375.6,141.1 380.5,217.4 385.4,31.4 390.2,100.1 395.1,38.7 400.0,280.5 404.9,262.8 409.7,148.7 414.6,37.7 419.5,264.9 424.4,285.2 429.2,150.9 434.1,224.3 439.0,201.0 443.9,154.0 448.8,27.8 453.6,175.0 458.5,36.7 463.4,65.3 468.2,251.4 473.1,228.3 478.0,80.0 482.9,53.6 487.8,93.6 492.6,269.7 497.5,206.0 502.4,233.5 507.2,281.9 512.1,82.3 517.0,10.0 521.9,288.2 526.8,123.7 531.6,144.6 536.5,46.4 541.4,65.3 546.2,121.2 551.1,207.9 556.0,120.9 560.9,230.4 565.8,155.8 570.6,195.8 575.5,121.4 580.4,117.9 585.2,246.1 590.1,96.8 595.0,265.3 599.9,15.2 604.8,123.4 609.6,255.9 614.5,196.3 619.4,197.3 624.2,79.4 629.1,53.4 634.0,267.6 638.9,51.3 643.8,168.8 648.6,231.8 653.5,114.8 658.4,32.9 663.2,102.1 668.1,235.7 673.0,259.3 677.9,36.3 682.8,283.0 687.6,213.4 692.5,62.9 697.4,190.8 702.2,14.9 707.1,210.7 712.0,106.8 716.9,17.5 721.8,232.0 726.6,123.5 731.5,220.0 736.4,49.0 741.2,86.2 746.1,131.5 751.0,42.5 755.9,200.2 760.8,258.5 765.6,268.9 770.5,258.2 775.4,265.2 780.2,161.9 785.1,123.5 790.0,269.1 " />
</svg>
